<?xml version="1.0" encoding="UTF-8" standalone="no"?>
<svg
   width="32"
   height="32"
   viewBox="0 0 31.998997 31.998996"
   fill="none"
   version="1.1"
   id="svg22"
   sodipodi:docname="isologo-phytoplant.svg"
   inkscape:version="1.3.2 (091e20e, 2023-11-25, custom)"
   xmlns:inkscape="http://www.inkscape.org/namespaces/inkscape"
   xmlns:sodipodi="http://sodipodi.sourceforge.net/DTD/sodipodi-0.dtd"
   xmlns="http://www.w3.org/2000/svg"
   xmlns:svg="http://www.w3.org/2000/svg">
  <sodipodi:namedview
     id="namedview22"
     pagecolor="#ffffff"
     bordercolor="#000000"
     borderopacity="0.25"
     inkscape:showpageshadow="2"
     inkscape:pageopacity="0.0"
     inkscape:pagecheckerboard="0"
     inkscape:deskcolor="#d1d1d1"
     inkscape:zoom="30.021739"
     inkscape:cx="8.1940623"
     inkscape:cy="15.005793"
     inkscape:window-width="3440"
     inkscape:window-height="1369"
     inkscape:window-x="-8"
     inkscape:window-y="-8"
     inkscape:window-maximized="1"
     inkscape:current-layer="svg22" />
  <path
     d="m 24.473057,1.255685 c -0.474,0.064959 -1.0397,0.157838 -1.6734,0.286853 -1.6188,0.32757 -3.6838,0.891671 -5.7864,1.861121 -1.54889,0.7146 -3.11723,1.64653 -4.54393,2.86623 -1.49289,1.27826 -2.8288501,2.86761 -3.8194801,4.85038 -1.07905,2.1617 -1.7488861,4.7905 -1.7613841,7.9816 -0.0084,1.8515 0.204607,3.8933 0.6874241,6.1438 h 0.00512 c 0.87999,-0.0545 1.71462,-0.1396 2.5163901,-0.2498 3.21909,-0.447 5.82389,-1.325 7.92646,-2.4884 2.2354,-1.2393 3.9042,-2.8017 5.1425,-4.5169 1.1063,-1.5358 1.8674,-3.1933 2.3812,-4.8476 0.6217,-2.0066 0.8804,-4.0105 0.9471,-5.79201 0.1259,-3.36719 -0.4291,-5.939267 -0.4944,-6.2252043 l -0.0166,-0.00506 0.012,-0.016474 c -9e-4,-0.00363 -0.0014,-0.00506 -0.0014,-0.00506 0,0 -0.5726,0.024707 -1.5212,0.156467"
     fill="url(#paint0_linear_661_15594)"
     id="path19"
     style="fill:url(#paint0_linear_661_15594)" />
  <path
     d="m 15.283917,6.143049 c -1.52298,1.20734 -3.23761,-0.85552 -4.9078,-0.52247 -1.0156301,0.07729 -2.0900501,0.72652 -2.4423201,1.54772 -0.33098,0.89579 0.09397,1.75132 0.89851,2.33051 3.6361801,2.05966 14.8520501,1.12683 13.4725501,4.47026 -0.3879,0.9388 -2.027,2.0121 -2.9825,2.5249 -1.6632,1.0944 -6.7025,1.6054 -4.97815,3.5717 1.59241,1.7701 5.27585,0.7558 5.15825,3.5072 -0.0977,2.3104 -6.6604,2.1466 -3.24458,4.0242 1.20358,0.6615 2.91588,1.1488 2.38908,2.2884 -0.2365,0.5467 -0.7291,0.9365 -1.2045,1.2137 0.387,-0.5233 0.5162,-1.3052 0.1468,-1.8684 -0.9643,-1.3354 -4.00331,-1.0874 -3.40661,-3.1718 0.37311,-1.0285 1.80026,-0.9388 2.69411,-1.4087 0.6611,-0.3193 2.0665,-1.2398 1.0782,-1.8583 -1.61283,-1.1717 -4.0783,-0.5472 -5.21243,-2.2541 -0.44023,-0.6163 -0.59577,-1.4046 -0.27312,-2.1315 0.76334,-1.4 2.73581,-1.443 4.13105,-2.0716 12.8023,-5.77548 -11.9413001,-1.6452 -10.1447394,-8.95464 0.3129292,-1.27277 1.7886893,-2.57436 3.3917593,-2.79854 5.4350501,-0.7599 5.5549401,1.32995 5.4364401,1.56146 z"
     fill="#009d43"
     id="path20" />
  <defs
     id="defs22">
    <linearGradient
       id="paint0_linear_661_15594"
       x1="4.6810098"
       y1="15.4756"
       x2="20.3258"
       y2="7.1050301"
       gradientUnits="userSpaceOnUse"
       gradientTransform="translate(6.3618568,1.099169)">
      <stop
         stop-color="#A1D84A"
         id="stop20" />
      <stop
         offset="0.00393446"
         stop-color="#A1D84A"
         id="stop21" />
      <stop
         offset="1"
         stop-color="#89CF25"
         id="stop22" />
    </linearGradient>
  </defs>
</svg>
