<svg xmlns:dc="http://purl.org/dc/elements/1.1/" xmlns:cc="http://creativecommons.org/ns#" xmlns:rdf="http://www.w3.org/1999/02/22-rdf-syntax-ns#" xmlns:svg="http://www.w3.org/2000/svg" xmlns="http://www.w3.org/2000/svg" xmlns:sodipodi="http://sodipodi.sourceforge.net/DTD/sodipodi-0.dtd" xmlns:inkscape="http://www.inkscape.org/namespaces/inkscape" width="1868" height="610" viewBox="0 0 1868 610.00001" id="svg4272" inkscape:version="0.91 r13725" sodipodi:docname="OnImagin_Logo_DarkBG.svg"><defs id="defs4274"><clipPath clipPathUnits="userSpaceOnUse" id="clipPath58"><path d="M 0,612 792,612 792,0 0,0 0,612 Z" id="path60" inkscape:connector-curvature="0"></path></clipPath><clipPath clipPathUnits="userSpaceOnUse" id="clipPath18"><path d="M 0,612 792,612 792,0 0,0 0,612 Z" id="path20" inkscape:connector-curvature="0"></path></clipPath></defs><metadata></metadata><g inkscape:label="Layer 1" inkscape:groupmode="layer" id="layer1" transform="translate(0,-442.36216)"><g transform="matrix(5.5473099,0,0,-5.56643,-1321.4418,2454.5115)" id="g14" style="fill:#95ce3f;fill-opacity:1"><g id="g16" clip-path="url(#clipPath18)" style="fill:#95ce3f;fill-opacity:1"><g id="g22" transform="translate(315.8921,330.4038)" style="fill:#95ce3f;fill-opacity:1"><path d="m 0,0 c 2.224,0 4.449,-0.189 6.674,-0.569 2.224,-0.379 4.234,-1.175 6.03,-2.389 1.794,-1.213 3.261,-2.958 4.399,-5.233 1.137,-2.275 1.706,-5.284 1.706,-9.025 l 0,-22.678 c -1.315,-0.252 -2.503,-0.417 -3.564,-0.492 -1.062,-0.076 -1.998,-0.114 -2.807,-0.114 -0.86,0 -1.82,0.038 -2.882,0.114 -1.061,0.075 -2.25,0.24 -3.564,0.492 l 0,21.312 c 0,2.68 -0.507,4.601 -1.517,5.765 -1.012,1.162 -2.554,1.744 -4.627,1.744 -0.556,0 -1.15,-0.051 -1.782,-0.152 -0.633,-0.102 -1.024,-0.202 -1.175,-0.303 l 0,-28.366 c -1.316,-0.252 -2.503,-0.417 -3.565,-0.492 -1.062,-0.076 -1.998,-0.114 -2.806,-0.114 -0.861,0 -1.821,0.038 -2.882,0.114 -1.062,0.075 -2.251,0.24 -3.565,0.492 l 0,37.24 c 1.769,0.606 3.918,1.2 6.447,1.782 C -6.953,-0.292 -3.792,0 0,0" style="fill:#95ce3f;fill-opacity:1;fill-rule:nonzero;stroke:none" id="path24" inkscape:connector-curvature="0"></path></g><g id="g26" transform="translate(355.6333,290.5098)" style="fill:#95ce3f;fill-opacity:1"><path d="m 0,0 c -1.315,-0.201 -2.503,-0.353 -3.565,-0.455 -1.061,-0.101 -2.023,-0.151 -2.882,-0.151 -0.86,0 -1.82,0.05 -2.882,0.151 -1.062,0.102 -2.226,0.254 -3.489,0.455 l 0,39.136 c 1.112,0.252 2.212,0.428 3.299,0.531 1.087,0.101 2.136,0.151 3.148,0.151 0.96,0 1.997,-0.05 3.109,-0.151 1.112,-0.103 2.2,-0.279 3.262,-0.531 L 0,0 Z" style="fill:#95ce3f;fill-opacity:1;fill-rule:nonzero;stroke:none" id="path28" inkscape:connector-curvature="0"></path></g><g id="g30" transform="translate(379.9019,330.4038)" style="fill:#95ce3f;fill-opacity:1"><path d="m 0,0 c 2.073,0 4.121,-0.165 6.144,-0.493 2.021,-0.329 3.892,-0.999 5.612,-2.01 1.314,0.657 2.856,1.239 4.626,1.745 1.769,0.505 3.766,0.758 5.992,0.758 1.971,0 4.006,-0.189 6.105,-0.569 2.098,-0.379 3.993,-1.175 5.688,-2.389 1.694,-1.213 3.083,-2.958 4.171,-5.233 1.087,-2.275 1.631,-5.284 1.631,-9.025 l 0,-22.678 c -1.315,-0.252 -2.503,-0.417 -3.564,-0.492 -1.062,-0.076 -1.998,-0.114 -2.807,-0.114 -0.86,0 -1.82,0.038 -2.882,0.114 -1.061,0.075 -2.25,0.24 -3.564,0.492 l 0,21.312 c 0,2.68 -0.455,4.601 -1.365,5.765 -0.911,1.162 -2.403,1.744 -4.475,1.744 -0.709,0 -1.403,-0.076 -2.086,-0.227 -0.683,-0.152 -1.15,-0.279 -1.403,-0.38 0.455,-1.77 0.682,-3.792 0.682,-6.067 l 0,-22.147 c -1.315,-0.252 -2.502,-0.417 -3.564,-0.492 -1.062,-0.076 -1.998,-0.114 -2.806,-0.114 -0.86,0 -1.82,0.038 -2.882,0.114 -1.062,0.075 -2.251,0.24 -3.565,0.492 l 0,21.312 c 0,2.68 -0.43,4.601 -1.289,5.765 -0.86,1.162 -2.326,1.744 -4.399,1.744 -0.557,0 -1.15,-0.051 -1.782,-0.152 -0.633,-0.102 -1.024,-0.202 -1.176,-0.303 l 0,-28.366 c -1.315,-0.252 -2.502,-0.417 -3.564,-0.492 -1.062,-0.076 -1.999,-0.114 -2.807,-0.114 -0.86,0 -1.82,0.038 -2.881,0.114 -1.062,0.075 -2.251,0.24 -3.565,0.492 l 0,37.24 c 1.769,0.606 3.893,1.2 6.371,1.782 C -6.928,-0.292 -3.792,0 0,0" style="fill:#95ce3f;fill-opacity:1;fill-rule:nonzero;stroke:none" id="path32" inkscape:connector-curvature="0"></path></g><g id="g34" transform="translate(443.9131,299.0049)" style="fill:#95ce3f;fill-opacity:1"><path d="m 0,0 c 0.455,0 1.111,0.05 1.972,0.151 0.859,0.101 1.491,0.202 1.896,0.304 l 0,8.343 -4.323,0 C -2.226,8.798 -3.717,8.418 -4.93,7.66 -6.144,6.902 -6.75,5.84 -6.75,4.475 -6.75,3.463 -6.522,2.666 -6.067,2.085 -5.612,1.504 -5.044,1.062 -4.361,0.758 -3.679,0.455 -2.946,0.252 -2.162,0.151 -1.379,0.05 -0.658,0 0,0 m -17.899,4.247 c 0,2.477 0.531,4.524 1.592,6.144 1.062,1.617 2.427,2.906 4.096,3.867 1.668,0.96 3.514,1.631 5.536,2.011 2.023,0.378 3.994,0.568 5.916,0.568 l 4.627,0 c -0.052,0.91 -0.304,1.669 -0.759,2.275 -0.455,0.607 -1.037,1.074 -1.744,1.404 -0.709,0.328 -1.492,0.555 -2.351,0.682 -0.861,0.126 -1.744,0.19 -2.655,0.19 -1.213,0 -2.63,-0.14 -4.247,-0.417 -1.619,-0.279 -3.288,-0.721 -5.006,-1.327 -0.455,0.858 -0.847,1.642 -1.175,2.351 -0.329,0.707 -0.582,1.427 -0.758,2.161 -0.179,0.732 -0.304,1.491 -0.38,2.275 -0.075,0.784 -0.113,1.681 -0.113,2.693 2.426,0.808 4.841,1.415 7.243,1.82 2.4,0.404 4.561,0.607 6.484,0.607 2.628,0 5.006,-0.317 7.129,-0.948 2.124,-0.633 3.931,-1.606 5.423,-2.92 1.491,-1.316 2.642,-2.996 3.451,-5.044 0.808,-2.048 1.213,-4.488 1.213,-7.319 l 0,-22.222 C 13.701,-7.459 11.376,-8.015 8.646,-8.57 5.915,-9.126 3.033,-9.405 0,-9.405 c -2.63,0 -5.044,0.241 -7.243,0.72 -2.199,0.481 -4.084,1.252 -5.651,2.314 -1.568,1.061 -2.794,2.465 -3.678,4.209 -0.885,1.745 -1.327,3.88 -1.327,6.409" style="fill:#95ce3f;fill-opacity:1;fill-rule:nonzero;stroke:none" id="path36" inkscape:connector-curvature="0"></path></g><g id="g38" transform="translate(485.9297,289.5244)" style="fill:#95ce3f;fill-opacity:1"><path d="m 0,0 c -3.641,0 -6.738,0.544 -9.291,1.631 -2.554,1.086 -4.64,2.565 -6.257,4.436 -1.619,1.87 -2.795,4.07 -3.527,6.599 -0.734,2.527 -1.1,5.233 -1.1,8.115 0,2.78 0.443,5.41 1.327,7.888 0.885,2.477 2.201,4.626 3.945,6.446 1.744,1.821 3.906,3.261 6.484,4.323 2.579,1.062 5.562,1.593 8.949,1.593 1.77,0 3.717,-0.202 5.84,-0.607 2.124,-0.405 4.448,-1.112 6.978,-2.123 -0.051,-0.861 -0.153,-1.669 -0.303,-2.427 -0.152,-0.759 -0.342,-1.53 -0.568,-2.313 -0.229,-0.785 -0.508,-1.619 -0.836,-2.503 -0.328,-0.886 -0.719,-1.885 -1.174,-2.996 -1.721,0.708 -3.313,1.225 -4.779,1.555 -1.467,0.328 -2.73,0.493 -3.792,0.493 -1.668,0 -3.084,-0.254 -4.248,-0.758 -1.163,-0.507 -2.098,-1.189 -2.805,-2.048 -0.709,-0.861 -1.227,-1.859 -1.555,-2.996 -0.33,-1.138 -0.493,-2.313 -0.493,-3.527 0,-3.388 0.732,-5.878 2.199,-7.47 1.466,-1.593 3.614,-2.39 6.446,-2.39 l 1.366,0 0,11.149 c 1.263,0.253 2.389,0.43 3.375,0.531 0.985,0.101 1.934,0.152 2.844,0.152 1.77,0 3.868,-0.228 6.295,-0.683 l 0,-19.264 C 13.854,2.249 11.805,1.643 9.176,0.985 6.547,0.329 3.488,0 0,0" style="fill:#95ce3f;fill-opacity:1;fill-rule:nonzero;stroke:none" id="path40" inkscape:connector-curvature="0"></path></g><g id="g42" transform="translate(521.1201,290.5098)" style="fill:#95ce3f;fill-opacity:1"><path d="m 0,0 c -1.315,-0.201 -2.503,-0.353 -3.564,-0.455 -1.062,-0.101 -2.023,-0.151 -2.882,-0.151 -0.861,0 -1.821,0.05 -2.882,0.151 -1.063,0.102 -2.226,0.254 -3.489,0.455 l 0,39.136 c 1.111,0.252 2.212,0.428 3.299,0.531 1.086,0.101 2.135,0.151 3.148,0.151 0.959,0 1.996,-0.05 3.109,-0.151 C -2.149,39.564 -1.062,39.388 0,39.136 L 0,0 Z" style="fill:#95ce3f;fill-opacity:1;fill-rule:nonzero;stroke:none" id="path44" inkscape:connector-curvature="0"></path></g><g id="g46" transform="translate(545.541,330.4038)" style="fill:#95ce3f;fill-opacity:1"><path d="m 0,0 c 2.225,0 4.449,-0.189 6.675,-0.569 2.224,-0.379 4.234,-1.175 6.029,-2.389 1.794,-1.213 3.262,-2.958 4.4,-5.233 1.136,-2.275 1.706,-5.284 1.706,-9.025 l 0,-22.678 c -1.316,-0.252 -2.503,-0.417 -3.565,-0.492 -1.061,-0.076 -1.998,-0.114 -2.807,-0.114 -0.86,0 -1.82,0.038 -2.881,0.114 -1.062,0.075 -2.25,0.24 -3.565,0.492 l 0,21.312 c 0,2.68 -0.506,4.601 -1.516,5.765 -1.013,1.162 -2.554,1.744 -4.627,1.744 -0.557,0 -1.151,-0.051 -1.783,-0.152 -0.632,-0.102 -1.023,-0.202 -1.175,-0.303 l 0,-28.366 c -1.316,-0.252 -2.503,-0.417 -3.565,-0.492 -1.061,-0.076 -1.998,-0.114 -2.805,-0.114 -0.861,0 -1.821,0.038 -2.883,0.114 -1.062,0.075 -2.25,0.24 -3.565,0.492 l 0,37.24 c 1.77,0.606 3.918,1.2 6.448,1.782 C -6.952,-0.292 -3.792,0 0,0" style="fill:#95ce3f;fill-opacity:1;fill-rule:nonzero;stroke:none" id="path48" inkscape:connector-curvature="0"></path></g></g></g><g id="g62" transform="matrix(5.5509318,0,0,-5.6067538,304.85177,688.70103)" style="fill:#85e755;fill-opacity:1"><path d="m 0,0 c 0,1.133 -0.041,2.241 -0.116,3.328 l -7.117,0 0,-13.988 5.948,0 C -0.433,-7.389 0,-3.839 0,0" style="fill:#85e755;fill-opacity:1;fill-rule:nonzero;stroke:none" id="path64" inkscape:connector-curvature="0"></path></g><g id="g66" transform="matrix(5.5509318,0,0,-5.6067538,280.3705,582.32058)" style="fill:#ff7753;fill-opacity:1"><path d="m 0,0 -2.822,0 0,-14.503 7.084,0 C 4.056,-11.86 3.634,-9.35 2.985,-6.979 2.275,-4.392 1.28,-2.066 0,0" style="fill:#ff7753;fill-opacity:1;fill-rule:nonzero;stroke:none" id="path68" inkscape:connector-curvature="0"></path></g><g id="g70" transform="matrix(5.2640356,0,0,-5.2887442,57.520368,567.48032)" style="fill:#ef4978;fill-opacity:1"><path d="m 0,0 c -0.399,-0.511 -0.771,-1.046 -1.128,-1.595 l 6.344,0 0,6.279 C 3.189,3.413 1.448,1.854 0,0" style="fill:#ef4978;fill-opacity:1;fill-rule:nonzero;stroke:none" id="path72" inkscape:connector-curvature="0"></path></g><g id="g74" transform="matrix(5.5509318,0,0,-5.6067538,85.027659,754.87208)" style="fill:#644fcd;fill-opacity:1"><path d="m 0,0 -9.638,0 c 0.01,-0.039 0.019,-0.078 0.03,-0.117 0.95,-3.419 2.414,-6.381 4.392,-8.888 1.113,-1.411 2.402,-2.638 3.856,-3.696 l 1.36,0 L 0,0 Z" style="fill:#644fcd;fill-opacity:1;fill-rule:nonzero;stroke:none" id="path76" inkscape:connector-curvature="0"></path></g><g id="g78" transform="matrix(5.5509318,0,0,-5.6067538,85.027659,832.48708)"><path d="M 0,0 -0.756,0 C -0.509,-0.166 -0.256,-0.327 0,-0.484 L 0,0 Z" style="fill:#0098d0;fill-opacity:1;fill-rule:nonzero;stroke:none" id="path80" inkscape:connector-curvature="0"></path></g><g id="g82" transform="matrix(5.5509318,0,0,-5.6067538,85.027659,670.03951)" style="fill:#00e87e;fill-opacity:1"><path d="m 0,0 -10.919,0 c -0.074,-1.087 -0.115,-2.195 -0.115,-3.328 0,-3.84 0.431,-7.39 1.285,-10.66 L 0,-13.988 0,0 Z" style="fill:#00e87e;fill-opacity:1;fill-rule:nonzero;stroke:none" id="path84" inkscape:connector-curvature="0"></path></g><g id="g86" transform="matrix(5.5509318,0,0,-5.6067538,85.027659,582.32058)" style="fill:#fb355f;fill-opacity:1"><path d="m 0,0 -6.624,0 c -1.28,-2.066 -2.276,-4.392 -2.984,-6.979 -0.65,-2.371 -1.072,-4.881 -1.278,-7.524 L 0,-14.503 0,0 Z" style="fill:#fb355f;fill-opacity:1;fill-rule:nonzero;stroke:none" id="path88" inkscape:connector-curvature="0"></path></g><g id="g90" transform="matrix(5.5509318,0,0,-5.6067538,170.20782,575.91473)" style="fill:#ff7753;fill-opacity:1"><path d="m 0,0 0,9.694 c -0.455,0.018 -0.914,0.03 -1.383,0.03 -4.213,0 -7.849,-0.722 -10.905,-2.165 -0.661,-0.312 -1.291,-0.655 -1.901,-1.018 L -14.189,0 0,0 Z" style="fill:#ff7753;fill-opacity:1;fill-rule:nonzero;stroke:#000000;stroke-width:0;stroke-miterlimit:4;stroke-dasharray:none;stroke-opacity:0" id="path92" inkscape:connector-curvature="0"></path></g><g id="g94" transform="matrix(5.5509318,0,0,-5.6067538,91.44398,670.03951)" style="fill:#288e84;fill-opacity:1"><path d="m 0,0 0,-13.988 4.462,0 c -1.065,2.628 -1.597,6.182 -1.597,10.66 0,1.173 0.04,2.28 0.115,3.328 L 0,0 Z" style="fill:#288e84;fill-opacity:1;fill-rule:nonzero;stroke:none" id="path96" inkscape:connector-curvature="0"></path></g><g id="g98" transform="matrix(5.5509318,0,0,-5.6067538,296.93836,755.52695)" style="fill:#ff5f5f;fill-opacity:1"><path d="m 0,0 c 0.011,0.038 0.02,0.078 0.03,0.117 l -5.837,0 0,-10.604 c 0.496,0.506 0.971,1.036 1.414,1.598 C -2.416,-6.382 -0.951,-3.419 0,0" style="fill:#ff5f5f;fill-opacity:1;fill-rule:nonzero;stroke:none" id="path100" inkscape:connector-curvature="0"></path></g><g id="g102" transform="matrix(5.5509318,0,0,-5.6067538,170.20782,832.48708)" style="fill:#f9377b;fill-opacity:1"><path d="m 0,0 -14.189,0 0,-0.739 c 0.61,-0.353 1.24,-0.685 1.901,-0.986 3.056,-1.393 6.692,-2.09 10.905,-2.09 0.469,0 0.928,0.012 1.383,0.03 L 0,0 Z" style="fill:#f9377b;fill-opacity:1;fill-rule:nonzero;stroke:none" id="path104" inkscape:connector-curvature="0"></path></g><g id="g106" transform="matrix(5.5509318,0,0,-5.6067538,176.62358,832.48708)" style="fill:#108ffa;fill-opacity:1"><path d="m 0,0 0,-3.764 c 3.444,0.174 6.462,0.851 9.048,2.039 1.092,0.501 2.113,1.078 3.069,1.725 L 0,0 Z" style="fill:#108ffa;fill-opacity:1;fill-rule:nonzero;stroke:none" id="path108" inkscape:connector-curvature="0"></path></g><g id="g110" transform="matrix(5.5509318,0,0,-5.6067538,258.28723,816.72299)" style="fill:#3737d5;fill-opacity:1"><path d="m 0,0 0,11.031 -8.498,0 C -9.836,8.09 -11.906,6.367 -14.712,5.866 l 0,-7.535 13.5369051,0 C -0.47109488,-1.154 -0.625,-1.2285848 0,-0.63058483" style="fill:#3737d5;fill-opacity:1;fill-rule:nonzero;stroke:none" id="path112" inkscape:connector-curvature="0" sodipodi:nodetypes="ccccccc"></path></g><g id="g114" transform="matrix(5.5509318,0,0,-5.6067538,170.20782,784.19596)" style="fill:#f3333c;fill-opacity:1"><path d="m 0,0 c -0.444,-0.058 -0.904,-0.091 -1.383,-0.091 -3.391,0 -5.896,1.355 -7.514,4.065 -0.232,0.388 -0.446,0.809 -0.645,1.256 l -4.647,0 0,-12.701 L 0,-7.471 0,0 Z" style="fill:#f3333c;fill-opacity:1;fill-rule:nonzero;stroke:none" id="path116" inkscape:connector-curvature="0"></path></g><g id="g118" transform="matrix(5.5509318,0,0,-5.6067538,258.28723,582.32058)" style="fill:#d22cd0;fill-opacity:1"><path d="m 0,0 -14.712,0 0,-1.843 c 4.649,-0.81 7.282,-5.031 7.902,-12.66 l 6.81,0 L 0,0 Z" style="fill:#d22cd0;fill-opacity:1;fill-rule:nonzero;stroke:none" id="path120" inkscape:connector-curvature="0"></path></g><g id="g122" transform="matrix(5.5509318,0,0,-5.6067538,91.44398,582.32058)" style="fill:#1fcdff;fill-opacity:1"><path d="m 0,0 0,-14.503 3.012,0 c 0.709,8.535 3.999,12.804 9.871,12.804 0.452,0 0.886,-0.029 1.306,-0.082 L 14.189,0 0,0 Z" style="fill:#1fcdff;fill-opacity:1;fill-rule:nonzero;stroke:none" id="path124" inkscape:connector-curvature="0"></path></g><g id="g126" transform="matrix(5.5509318,0,0,-5.6067538,258.28723,748.46622)" style="fill:#ffc26b;fill-opacity:1"><path d="m 0,0 0,13.988 -6.779,0 C -6.705,12.939 -6.666,11.833 -6.666,10.66 -6.666,6.195 -7.214,2.642 -8.31,0 L 0,0 Z" style="fill:#ffc26b;fill-opacity:1;fill-rule:nonzero;stroke:none" id="path128" inkscape:connector-curvature="0"></path></g><path d="m 304.28502,511.44379 -42.03165,0 0,-42.45434 42.03165,0 0,42.45434 z" style="fill:#f3333c;fill-opacity:1;fill-rule:nonzero;stroke:none" id="path130" inkscape:connector-curvature="0"></path><path d="m 218.07572,574.02876 -42.03165,0 0,-42.45434 42.03165,0 0,42.45434 z" style="fill:#acd4d4;fill-opacity:1;fill-rule:nonzero;stroke:none" id="path132" inkscape:connector-curvature="0"></path><path d="m 380.38607,507.88028 -27.06079,0 0,-27.33293 27.06079,0 0,27.33293 z" style="fill:#ffa647;fill-opacity:1;fill-rule:nonzero;stroke:none" id="path134" inkscape:connector-curvature="0"></path><path d="m 342.61754,552.69506 -15.80906,0 0,-15.96804 15.80906,0 0,15.96804 z" style="fill:#ffa647;fill-opacity:1;fill-rule:nonzero;stroke:none" id="path136" inkscape:connector-curvature="0"></path><path d="m 243.12708,522.61244 -37.08578,0 0,-37.45872 37.08578,0 0,37.45872 z" style="fill:#1fcdff;fill-opacity:1;fill-rule:nonzero;stroke:none" id="path138" inkscape:connector-curvature="0"></path><path d="m 206.03575,473.02631 -24.13545,0 0,-24.37817 24.13545,0 0,24.37817 z" style="fill:#ebb8f6;fill-opacity:1;fill-rule:nonzero;stroke:none" id="path140" inkscape:connector-curvature="0"></path><path d="m 321.67387,574.02876 -42.03166,0 0,-42.45434 42.03166,0 0,42.45434 z" style="fill:#ff7753;fill-opacity:1;fill-rule:nonzero;stroke:none" id="path142" inkscape:connector-curvature="0"></path><path d="m 331.7044,619.2248 -31.04636,0 0,-31.35857 31.04636,0 0,31.35857 z" style="fill:#8b8e91;fill-opacity:1;fill-rule:nonzero;stroke:none" id="path144" inkscape:connector-curvature="0"></path><g transform="scale(1.0041676,0.99584972)" style="font-style:normal;font-weight:normal;font-size:62.40740967px;line-height:125%;font-family:sans-serif;letter-spacing:0px;word-spacing:0px;fill:#7d7e81;fill-opacity:1;stroke:none;stroke-width:1px;stroke-linecap:butt;stroke-linejoin:miter;stroke-opacity:1" id="text4201"><path d="m 981.96021,894.65647 -23.44958,0 q -1.26375,-6.03791 -1.26375,-11.09291 0,-4.63375 1.26375,-10.81209 l 71.75287,0 q 0.5617,3.08917 0.8425,5.75709 0.2809,2.66791 0.2809,5.055 0,4.63375 -1.1234,11.09291 l -23.4495,0 0,78.63334 q -7.44212,1.26375 -12.35671,1.26375 -5.19541,0 -12.49708,-1.26375 l 0,-78.63334 z" style="font-style:normal;font-variant:normal;font-weight:normal;font-stretch:normal;font-size:140.41667175px;font-family:'Aller Display';-inkscape-font-specification:'Aller Display';fill:#7d7e81;fill-opacity:1" id="path7698"></path><path d="m 1046.4422,944.92564 q 1.5446,5.75709 5.3358,8.14417 3.9317,2.38708 10.2504,2.38708 4.0721,0 9.1271,-0.98291 5.055,-0.98292 9.9696,-2.94875 1.9658,3.65083 3.37,8.70583 1.5446,5.055 1.685,10.53125 -12.4971,4.63375 -25.5558,4.63375 -10.11,0 -17.4117,-2.80833 -7.1613,-2.80834 -11.795,-7.72292 -4.4933,-5.055 -6.74,-11.93542 -2.1063,-6.88041 -2.1063,-15.02458 0,-8.00375 2.2467,-15.02459 2.2467,-7.02083 6.74,-12.21625 4.4933,-5.19541 11.2333,-8.14416 6.74,-3.08917 15.7267,-3.08917 7.4421,0 13.1992,2.5275 5.8975,2.5275 9.9696,7.02083 4.072,4.35292 6.1783,10.67167 2.2467,6.17833 2.2467,13.48 0,3.79125 -0.4213,6.88042 -0.2808,2.94875 -0.5617,4.91458 l -42.6866,0 z m 11.2333,-27.66208 q -4.4933,0 -7.7229,2.80833 -3.2296,2.80833 -3.7913,8.70583 l 22.4667,0 q -0.2808,-4.91458 -3.0892,-8.14416 -2.6679,-3.37 -7.8633,-3.37 z" style="font-style:normal;font-variant:normal;font-weight:normal;font-stretch:normal;font-size:140.41667175px;font-family:'Aller Display';-inkscape-font-specification:'Aller Display';fill:#7d7e81;fill-opacity:1" id="path7700"></path><path d="m 1097.9905,937.48356 q 0,-8.425 2.387,-15.44584 2.3871,-7.02083 7.0209,-11.93541 4.6337,-5.055 11.3737,-7.86334 6.74,-2.80833 15.4459,-2.80833 2.9487,0 5.6166,0.14042 2.6679,0.14041 5.1954,0.56166 2.668,0.42125 5.3359,1.26375 2.8083,0.8425 6.1783,2.10625 0.2808,4.77417 -0.8425,9.54834 -1.1233,4.63375 -3.5104,9.12708 -2.3871,-0.8425 -4.3529,-1.26375 -1.8254,-0.56167 -3.5104,-0.8425 -1.685,-0.28083 -3.37,-0.28083 -1.5446,-0.14042 -3.37,-0.14042 -6.74,0 -11.2334,4.07208 -4.3529,3.93167 -4.3529,13.76084 0,5.19542 1.2638,8.70583 1.4041,3.37 3.5104,5.33584 2.2466,1.96583 5.055,2.80833 2.9487,0.8425 6.1783,0.8425 4.0721,0 7.0208,-0.70208 3.0892,-0.70209 7.1613,-2.24667 2.3871,3.79125 3.7912,8.56542 1.4042,4.63375 1.4042,10.67166 -6.4592,2.5275 -11.795,3.22959 -5.3358,0.70208 -10.6717,0.70208 -8.9866,0 -15.867,-2.66792 -6.8805,-2.66791 -11.6546,-7.5825 -4.6338,-5.055 -7.0209,-11.93541 -2.387,-7.02084 -2.387,-15.72667 z" style="font-style:normal;font-variant:normal;font-weight:normal;font-stretch:normal;font-size:140.41667175px;font-family:'Aller Display';-inkscape-font-specification:'Aller Display';fill:#7d7e81;fill-opacity:1" id="path7702"></path><path d="m 1212.1075,946.89148 -20.7816,0 0,26.67916 q -3.6509,0.56167 -6.5996,0.8425 -2.9488,0.28084 -5.3359,0.28084 -2.387,0 -5.3358,-0.28084 -2.9487,-0.28083 -6.4592,-0.8425 l 0,-72.455 q 3.0892,-0.70208 6.038,-0.98292 3.0891,-0.28083 5.8975,-0.28083 2.6679,0 5.757,0.28083 3.0892,0.28084 6.038,0.98292 l 0,24.71333 20.7816,0 0,-24.71333 q 3.0892,-0.70208 6.0379,-0.98292 3.0892,-0.28083 5.8975,-0.28083 2.668,0 5.7571,0.28083 3.0892,0.28084 6.0379,0.98292 l 0,72.455 q -3.6508,0.56167 -6.5995,0.8425 -2.9488,0.28084 -5.3359,0.28084 -2.3871,0 -5.3358,-0.28084 -2.9488,-0.28083 -6.4592,-0.8425 l 0,-26.67916 z" style="font-style:normal;font-variant:normal;font-weight:normal;font-stretch:normal;font-size:140.41667175px;font-family:'Aller Display';-inkscape-font-specification:'Aller Display';fill:#7d7e81;fill-opacity:1" id="path7704"></path><path d="m 1281.0038,899.71147 q 6.1784,0 12.3567,1.12334 6.1784,0.98291 11.0929,4.35291 5.055,3.37 8.1442,9.68875 3.2296,6.31875 3.2296,16.70959 l 0,41.98458 q -3.6508,0.70209 -6.5996,0.8425 -2.9487,0.28084 -5.1954,0.28084 -2.3871,0 -5.3358,-0.28084 -2.9488,-0.14041 -6.5996,-0.8425 l 0,-39.45708 q 0,-7.44209 -2.8084,-10.67167 -2.8083,-3.22958 -8.5654,-3.22958 -1.5446,0 -3.37,0.28083 -1.685,0.28083 -2.1062,0.56167 l 0,52.51583 q -3.6509,0.70209 -6.5996,0.8425 -2.9488,0.28084 -5.1954,0.28084 -2.3871,0 -5.3359,-0.28084 -2.9487,-0.14041 -6.5996,-0.8425 l 0,-68.94458 q 4.9146,-1.685 11.9355,-3.22959 7.0208,-1.685 17.552,-1.685 z" style="font-style:normal;font-variant:normal;font-weight:normal;font-stretch:normal;font-size:140.41667175px;font-family:'Aller Display';-inkscape-font-specification:'Aller Display';fill:#7d7e81;fill-opacity:1" id="path7706"></path><path d="m 1327.2645,937.76439 q 0,-8.56542 2.2467,-15.58625 2.3871,-7.16125 6.8804,-12.21625 4.6338,-5.055 11.3738,-7.72292 6.74,-2.80833 15.5862,-2.80833 8.9867,0 15.7267,2.80833 6.74,2.66792 11.2333,7.72292 4.6338,5.055 6.8804,12.21625 2.3871,7.02083 2.3871,15.58625 0,8.425 -2.3871,15.44584 -2.2466,6.88041 -6.8804,11.93541 -4.4933,4.91459 -11.2333,7.5825 -6.74,2.66792 -15.7267,2.66792 -8.8462,0 -15.5862,-2.66792 -6.74,-2.66791 -11.3738,-7.5825 -4.4933,-5.055 -6.8804,-11.93541 -2.2467,-7.02084 -2.2467,-15.44584 z m 48.3034,0 q 0,-8.98667 -3.0892,-13.76083 -2.9487,-4.77417 -9.1271,-4.77417 -6.1783,0 -9.1271,4.77417 -2.9487,4.77416 -2.9487,13.76083 0,8.84625 2.9487,13.62042 2.9488,4.77417 9.1271,4.77417 6.1784,0 9.1271,-4.77417 3.0892,-4.77417 3.0892,-13.62042 z" style="font-style:normal;font-variant:normal;font-weight:normal;font-stretch:normal;font-size:140.41667175px;font-family:'Aller Display';-inkscape-font-specification:'Aller Display';fill:#7d7e81;fill-opacity:1" id="path7708"></path><path d="m 1435.4095,953.91231 26.5388,0 q 0.7021,2.80833 0.8425,5.19542 0.2808,2.38708 0.2808,4.63375 0,2.24666 -0.2808,4.77416 -0.1404,2.38709 -0.8425,5.19542 l -50.2692,0 0.1404,-72.59542 q 3.0892,-0.70208 6.0379,-0.98292 3.0892,-0.28083 5.8975,-0.28083 2.6679,0 5.7571,0.28083 3.0892,0.28084 6.0379,0.98292 l -0.1404,52.79667 z" style="font-style:normal;font-variant:normal;font-weight:normal;font-stretch:normal;font-size:140.41667175px;font-family:'Aller Display';-inkscape-font-specification:'Aller Display';fill:#7d7e81;fill-opacity:1" id="path7710"></path><path d="m 1468.2297,937.76439 q 0,-8.56542 2.2467,-15.58625 2.3871,-7.16125 6.8804,-12.21625 4.6338,-5.055 11.3738,-7.72292 6.74,-2.80833 15.5862,-2.80833 8.9867,0 15.7267,2.80833 6.74,2.66792 11.2333,7.72292 4.6338,5.055 6.8804,12.21625 2.3871,7.02083 2.3871,15.58625 0,8.425 -2.3871,15.44584 -2.2466,6.88041 -6.8804,11.93541 -4.4933,4.91459 -11.2333,7.5825 -6.74,2.66792 -15.7267,2.66792 -8.8462,0 -15.5862,-2.66792 -6.74,-2.66791 -11.3738,-7.5825 -4.4933,-5.055 -6.8804,-11.93541 -2.2467,-7.02084 -2.2467,-15.44584 z m 48.3034,0 q 0,-8.98667 -3.0892,-13.76083 -2.9488,-4.77417 -9.1271,-4.77417 -6.1783,0 -9.1271,4.77417 -2.9487,4.77416 -2.9487,13.76083 0,8.84625 2.9487,13.62042 2.9488,4.77417 9.1271,4.77417 6.1783,0 9.1271,-4.77417 3.0892,-4.77417 3.0892,-13.62042 z" style="font-style:normal;font-variant:normal;font-weight:normal;font-stretch:normal;font-size:140.41667175px;font-family:'Aller Display';-inkscape-font-specification:'Aller Display';fill:#7d7e81;fill-opacity:1" id="path7712"></path><path d="m 1586.4847,975.39606 q -10.11,0 -17.2713,-2.94875 -7.0208,-3.08917 -11.5141,-8.28458 -4.4934,-5.19542 -6.5996,-12.21625 -1.9658,-7.02084 -1.9658,-15.02459 0,-7.72292 2.387,-14.60333 2.5275,-6.88042 7.3017,-11.93542 4.9146,-5.055 12.0758,-8.00375 7.1613,-2.94875 16.5692,-2.94875 4.9146,0 10.8121,1.12333 5.8975,1.12334 12.9183,3.93167 -0.1404,2.38708 -0.5616,4.49333 -0.4213,2.10625 -1.1234,4.35292 -0.5616,2.10625 -1.5446,4.63375 -0.8425,2.38708 -2.1062,5.47625 -4.7742,-1.96583 -8.8463,-2.80833 -4.072,-0.98292 -7.0208,-0.98292 -4.6337,0 -7.8633,1.40417 -3.2296,1.40416 -5.1954,3.79125 -1.9659,2.38708 -2.9488,5.61666 -0.8425,3.08917 -0.8425,6.45917 0,9.40792 4.0721,13.90125 4.0721,4.35292 11.9354,4.35292 l 2.5275,0 0,-20.64125 q 3.5104,-0.70209 6.1783,-0.98292 2.8084,-0.28083 5.3359,-0.28083 4.9146,0 11.6546,1.26375 l 0,35.66583 q -4.0721,1.54459 -11.3738,3.37 -7.3017,1.82542 -16.9904,1.82542 z" style="font-style:normal;font-variant:normal;font-weight:normal;font-stretch:normal;font-size:140.41667175px;font-family:'Aller Display';-inkscape-font-specification:'Aller Display';fill:#7d7e81;fill-opacity:1" id="path7714"></path><path d="m 1651.5195,973.57064 q -3.6508,0.56167 -6.5996,0.8425 -2.9487,0.28084 -5.3358,0.28084 -2.3871,0 -5.3358,-0.28084 -2.9488,-0.28083 -6.4592,-0.8425 l 0,-72.455 q 3.0892,-0.70208 6.0379,-0.98292 3.0892,-0.28083 5.8975,-0.28083 2.6679,0 5.7571,0.28083 3.0892,0.28084 6.0379,0.98292 l 0,72.455 z" style="font-style:normal;font-variant:normal;font-weight:normal;font-stretch:normal;font-size:140.41667175px;font-family:'Aller Display';-inkscape-font-specification:'Aller Display';fill:#7d7e81;fill-opacity:1" id="path7716"></path><path d="m 1687.6417,944.92564 q 1.5446,5.75709 5.3359,8.14417 3.9316,2.38708 10.2504,2.38708 4.0721,0 9.1271,-0.98291 5.055,-0.98292 9.9695,-2.94875 1.9659,3.65083 3.37,8.70583 1.5446,5.055 1.685,10.53125 -12.497,4.63375 -25.5558,4.63375 -10.11,0 -17.4117,-2.80833 -7.1612,-2.80834 -11.795,-7.72292 -4.4933,-5.055 -6.74,-11.93542 -2.1062,-6.88041 -2.1062,-15.02458 0,-8.00375 2.2467,-15.02459 2.2466,-7.02083 6.74,-12.21625 4.4933,-5.19541 11.2333,-8.14416 6.74,-3.08917 15.7267,-3.08917 7.442,0 13.1991,2.5275 5.8975,2.5275 9.9696,7.02083 4.0721,4.35292 6.1783,10.67167 2.2467,6.17833 2.2467,13.48 0,3.79125 -0.4212,6.88042 -0.2809,2.94875 -0.5617,4.91458 l -42.6867,0 z m 11.2334,-27.66208 q -4.4934,0 -7.723,2.80833 -3.2295,2.80833 -3.7912,8.70583 l 22.4667,0 q -0.2809,-4.91458 -3.0892,-8.14416 -2.6679,-3.37 -7.8633,-3.37 z" style="font-style:normal;font-variant:normal;font-weight:normal;font-stretch:normal;font-size:140.41667175px;font-family:'Aller Display';-inkscape-font-specification:'Aller Display';fill:#7d7e81;fill-opacity:1" id="path7718"></path><path d="m 1777.6642,928.21606 q 4.2125,1.12333 7.5825,2.80833 3.5104,1.54458 5.8975,4.07208 2.5275,2.5275 3.9316,6.17834 1.4042,3.65083 1.4042,8.84625 0,5.33583 -2.2467,9.96958 -2.1062,4.63375 -6.4591,8.00375 -4.2125,3.37 -10.5313,5.33584 -6.1783,1.96583 -14.3225,1.96583 -6.74,0 -12.4971,-0.98292 -5.757,-0.98291 -12.2162,-3.37 0.7021,-9.54833 5.1954,-19.3775 4.4933,2.10625 9.4079,3.22959 4.9146,0.98291 9.8292,0.98291 1.685,0 3.5104,-0.14041 1.8254,-0.14042 3.2296,-0.56167 1.4042,-0.56167 2.2467,-1.40417 0.9829,-0.8425 0.9829,-2.24666 0,-1.82542 -1.8254,-2.66792 -1.8255,-0.98292 -4.2125,-1.685 l -9.5484,-2.66792 q -7.4421,-2.10625 -12.3566,-7.16125 -4.9146,-5.055 -4.9146,-13.76083 0,-5.47625 2.2466,-9.96959 2.2467,-4.49333 6.3188,-7.5825 4.0721,-3.22958 9.5483,-4.91458 5.6167,-1.685 12.3567,-1.685 5.3358,0 11.6546,1.12333 6.3187,1.12334 12.4971,3.22959 -0.2809,4.49333 -1.8255,9.68875 -1.5445,5.055 -3.5104,8.98666 -3.7912,-1.54458 -9.1271,-2.80833 -5.3358,-1.26375 -9.8291,-1.26375 -6.5996,0 -6.5996,3.65083 0,1.54459 1.5446,2.38709 1.5446,0.8425 3.5104,1.40416 l 9.1271,2.38709 z" style="font-style:normal;font-variant:normal;font-weight:normal;font-stretch:normal;font-size:140.41667175px;font-family:'Aller Display';-inkscape-font-specification:'Aller Display';fill:#7d7e81;fill-opacity:1" id="path7720"></path></g><path d="m 923.58725,926.73219 -42.03165,0 0,-42.45434 42.03165,0 0,42.45434 z" style="fill:#f3333c;fill-opacity:1;fill-rule:nonzero;stroke:none" id="path130-2" inkscape:connector-curvature="0"></path><path d="m 873.68574,949.37724 -37.08578,0 0,-37.45872 37.08578,0 0,37.45872 z" style="fill:#1fcdff;fill-opacity:1;fill-rule:nonzero;stroke:none" id="path138-2" inkscape:connector-curvature="0"></path><path d="m 912.38753,969.45719 -27.06079,0 0,-27.33293 27.06079,0 0,27.33293 z" style="fill:#ffa647;fill-opacity:1;fill-rule:nonzero;stroke:none" id="path134-2" inkscape:connector-curvature="0"></path></g></svg>