<?xml version="1.0" encoding="UTF-8" standalone="no"?>
<svg
   xmlns:dc="http://purl.org/dc/elements/1.1/"
   xmlns:cc="http://creativecommons.org/ns#"
   xmlns:rdf="http://www.w3.org/1999/02/22-rdf-syntax-ns#"
   xmlns:svg="http://www.w3.org/2000/svg"
   xmlns="http://www.w3.org/2000/svg"
   xmlns:xlink="http://www.w3.org/1999/xlink"
   xmlns:sodipodi="http://sodipodi.sourceforge.net/DTD/sodipodi-0.dtd"
   xmlns:inkscape="http://www.inkscape.org/namespaces/inkscape"
   xml:space="preserve"
   enable-background="new 0 0 550 200"
   viewBox="0 0 503.02582 137.73"
   height="137.73"
   width="503.02582"
   y="0px"
   x="0px"
   id="Capa_1"
   version="1.1"
   inkscape:version="0.91 r13725"
   sodipodi:docname="isologo.svg"><sodipodi:namedview
     pagecolor="#ffffff"
     bordercolor="#666666"
     borderopacity="1"
     objecttolerance="10"
     gridtolerance="10"
     guidetolerance="10"
     inkscape:pageopacity="0"
     inkscape:pageshadow="2"
     inkscape:window-width="1920"
     inkscape:window-height="1027"
     id="namedview84"
     showgrid="false"
     inkscape:zoom="1.495672"
     inkscape:cx="165.55515"
     inkscape:cy="38.778187"
     inkscape:window-x="0"
     inkscape:window-y="27"
     inkscape:window-maximized="1"
     inkscape:current-layer="Capa_1" /><metadata
     id="metadata164"><rdf:RDF><cc:Work
         rdf:about=""><dc:format>image/svg+xml</dc:format><dc:type
           rdf:resource="http://purl.org/dc/dcmitype/StillImage" /><dc:title /></cc:Work></rdf:RDF></metadata><defs
     id="defs162"><linearGradient
       id="SVGID_2_-9"
       gradientUnits="userSpaceOnUse"
       x1="105.8435"
       y1="682.86041"
       x2="93.8433"
       y2="790.86292"
       gradientTransform="translate(16.7998,-640.6797)"><stop
         offset="0"
         style="stop-color:#3A89BF"
         id="stop16-9" /><stop
         offset="0.2563"
         style="stop-color:#3684BC"
         id="stop18-7" /><stop
         offset="0.562"
         style="stop-color:#2C75B3"
         id="stop20-2" /><stop
         offset="0.8915"
         style="stop-color:#1B5EA5"
         id="stop22-2" /><stop
         offset="1"
         style="stop-color:#14549F"
         id="stop24-9" /></linearGradient><linearGradient
       id="SVGID_3_-4"
       gradientUnits="userSpaceOnUse"
       x1="62.647701"
       y1="678.06451"
       x2="50.6478"
       y2="786.06238"
       gradientTransform="translate(16.7998,-640.6797)"><stop
         offset="0"
         style="stop-color:#3A89BF"
         id="stop29-2" /><stop
         offset="0.2563"
         style="stop-color:#3684BC"
         id="stop31-7" /><stop
         offset="0.562"
         style="stop-color:#2C75B3"
         id="stop33-6" /><stop
         offset="0.8915"
         style="stop-color:#1B5EA5"
         id="stop35-2" /><stop
         offset="1"
         style="stop-color:#14549F"
         id="stop37-7" /></linearGradient><linearGradient
       id="SVGID_4_-0"
       gradientUnits="userSpaceOnUse"
       x1="136.24339"
       y1="686.24219"
       x2="124.2436"
       y2="794.24103"
       gradientTransform="translate(16.7998,-640.6797)"><stop
         offset="0"
         style="stop-color:#3A89BF"
         id="stop42-8" /><stop
         offset="0.2563"
         style="stop-color:#3684BC"
         id="stop44-7" /><stop
         offset="0.562"
         style="stop-color:#2C75B3"
         id="stop46-0" /><stop
         offset="0.8915"
         style="stop-color:#1B5EA5"
         id="stop48-4" /><stop
         offset="1"
         style="stop-color:#14549F"
         id="stop50-9" /></linearGradient><linearGradient
       id="SVGID_5_-2"
       gradientUnits="userSpaceOnUse"
       x1="100.3962"
       y1="682.25781"
       x2="88.396103"
       y2="790.25928"
       gradientTransform="translate(16.7998,-640.6797)"><stop
         offset="0"
         style="stop-color:#3A89BF"
         id="stop55-4" /><stop
         offset="0.2563"
         style="stop-color:#3684BC"
         id="stop57-3" /><stop
         offset="0.562"
         style="stop-color:#2C75B3"
         id="stop59-9" /><stop
         offset="0.8915"
         style="stop-color:#1B5EA5"
         id="stop61-3" /><stop
         offset="1"
         style="stop-color:#14549F"
         id="stop63-9" /></linearGradient><linearGradient
       id="SVGID_6_-0"
       gradientUnits="userSpaceOnUse"
       x1="97.279503"
       y1="681.53912"
       x2="85.279503"
       y2="789.539"
       gradientTransform="translate(16.7998,-640.6797)"><stop
         offset="0"
         style="stop-color:#3A89BF"
         id="stop68-1" /><stop
         offset="0.2563"
         style="stop-color:#3684BC"
         id="stop70-3" /><stop
         offset="0.562"
         style="stop-color:#2C75B3"
         id="stop72-1" /><stop
         offset="0.8915"
         style="stop-color:#1B5EA5"
         id="stop74-5" /><stop
         offset="1"
         style="stop-color:#14549F"
         id="stop76-5" /></linearGradient><linearGradient
       id="SVGID_7_-7"
       gradientUnits="userSpaceOnUse"
       x1="54.4412"
       y1="675.74323"
       x2="42.4408"
       y2="783.74609"
       gradientTransform="translate(16.7998,-640.6797)"><stop
         offset="0"
         style="stop-color:#3A89BF"
         id="stop81-4" /><stop
         offset="0.2555"
         style="stop-color:#3684BC"
         id="stop83-6" /><stop
         offset="0.5601"
         style="stop-color:#2C75B3"
         id="stop85-4" /><stop
         offset="0.8885"
         style="stop-color:#1B5EA5"
         id="stop87-8" /><stop
         offset="0.9966"
         style="stop-color:#14549F"
         id="stop89-9" /></linearGradient><linearGradient
       id="SVGID_1_-3"
       gradientUnits="userSpaceOnUse"
       x1="12.0837"
       y1="770.74512"
       x2="69.083099"
       y2="811.74481"
       gradientTransform="translate(16.7998,-640.6797)"><stop
         offset="0"
         style="stop-color:#8d8d8d;stop-opacity:0;"
         id="stop7-3" /><stop
         offset="1"
         style="stop-color:#8d8d8d;stop-opacity:0.50196081;"
         id="stop9-3" /></linearGradient><linearGradient
       y2="811.74481"
       x2="69.083099"
       y1="770.74512"
       x1="12.0837"
       gradientTransform="matrix(1.0004507,0,0,1.0004507,10.054366,-667.12038)"
       gradientUnits="userSpaceOnUse"
       id="linearGradient7718"
       xlink:href="#SVGID_1_-3" /><linearGradient
       y2="783.74609"
       x2="42.4408"
       y1="675.74323"
       x1="54.4412"
       gradientTransform="matrix(1.0004507,0,0,1.0004507,10.033649,-667.02721)"
       gradientUnits="userSpaceOnUse"
       id="linearGradient7735"
       xlink:href="#SVGID_7_-7" /><linearGradient
       y2="789.539"
       x2="85.279503"
       y1="681.53912"
       x1="97.279503"
       gradientTransform="matrix(1.0004507,0,0,1.0004507,10.033649,-667.02721)"
       gradientUnits="userSpaceOnUse"
       id="linearGradient7738"
       xlink:href="#SVGID_6_-0" /><linearGradient
       y2="790.25928"
       x2="88.396103"
       y1="682.25781"
       x1="100.3962"
       gradientTransform="matrix(1.0004507,0,0,1.0004507,10.033649,-667.02721)"
       gradientUnits="userSpaceOnUse"
       id="linearGradient7741"
       xlink:href="#SVGID_5_-2" /><linearGradient
       y2="794.24103"
       x2="124.2436"
       y1="686.24219"
       x1="136.24339"
       gradientTransform="matrix(1.0004507,0,0,1.0004507,10.033649,-667.02721)"
       gradientUnits="userSpaceOnUse"
       id="linearGradient7744"
       xlink:href="#SVGID_4_-0" /><linearGradient
       y2="786.06238"
       x2="50.6478"
       y1="678.06451"
       x1="62.647701"
       gradientTransform="matrix(1.0004507,0,0,1.0004507,10.033649,-667.02721)"
       gradientUnits="userSpaceOnUse"
       id="linearGradient7747"
       xlink:href="#SVGID_3_-4" /><linearGradient
       y2="790.86292"
       x2="93.8433"
       y1="682.86041"
       x1="105.8435"
       gradientTransform="matrix(1.0004507,0,0,1.0004507,10.033649,-667.02721)"
       gradientUnits="userSpaceOnUse"
       id="linearGradient7750"
       xlink:href="#SVGID_2_-9" /></defs><g
     transform="translate(-17.805177,-32.07)"
     id="colours" /><path
     style="fill:#14549f"
     id="path93"
     d="m 485.75482,61.29 c 2.221,2.11 3.271,4.91 3.271,8.29 0,5.02 -1.75,8.87 -5.368,11.68 -3.392,2.45 -8.41,3.609 -15.29,3.609 -6.421,0 -11.32,-1.279 -14.479,-3.852 -3.261,-2.68 -4.899,-6.42 -4.899,-11.44 l 0,-0.46 11.439,0 c 0.229,2.21 1.05,3.959 2.569,5.02 1.75,1.05 4.09,1.63 6.771,1.63 2.102,0 3.852,-0.35 5.25,-1.17 1.521,-0.7 2.221,-1.75 2.221,-3.27 0,-1.98 -2.449,-3.5 -7.239,-4.55 -1.979,-0.35 -3.5,-0.58 -4.432,-0.93 -5.96,-1.52 -10.04,-3.27 -12.26,-5.26 -2.221,-2.1 -3.271,-4.9 -3.271,-8.28 0,-4.32 1.641,-7.82 4.898,-10.74 3.392,-2.57 7.83,-3.85 13.189,-3.85 5.96,0 10.63,1.28 14.011,3.85 3.39,2.92 5.25,6.54 5.369,11.09 l -7.352,0 c -2.1,0 -3.738,-0.94 -4.908,-2.92 -0.46,-0.47 -0.932,-0.93 -1.399,-1.28 -1.28,-1.05 -3.15,-1.52 -5.479,-1.52 -2.222,0 -3.972,0.35 -5.142,0.93 -1.05,0.7 -1.511,1.75 -1.511,3.15 0,1.75 2.91,3.39 8.75,4.67 0.7,0.12 1.28,0.35 1.75,0.47 0.591,0.12 1.051,0.23 1.4,0.23 5.949,1.523 9.921,3.153 12.141,4.903 z"
     inkscape:connector-curvature="0" /><path
     style="fill:#14549f"
     id="path95"
     d="m 445.24482,44.6 0,39.34 -11.78,0 0,-45.17 6.07,0 c 1.51,0 2.91,0.58 4.198,1.63 1.052,1.17 1.512,2.57 1.512,4.2 z"
     inkscape:connector-curvature="0" /><path
     style="fill:#14549f"
     id="path97"
     d="m 445.24482,31.3 0,3.62 -11.78,0 0,-9.46 6.07,0 c 1.51,0 2.91,0.58 4.198,1.75 1.052,1.17 1.512,2.57 1.512,4.09 z"
     inkscape:connector-curvature="0" /><path
     style="fill:#14549f"
     id="path99"
     d="m 426.45482,61.29 c 2.108,2.11 3.148,4.91 3.148,8.29 0,5.02 -1.738,8.87 -5.25,11.68 -3.38,2.45 -8.521,3.609 -15.29,3.609 -6.42,0 -11.198,-1.279 -14.47,-3.852 -3.271,-2.68 -4.898,-6.42 -4.898,-11.44 l 0,-0.46 11.43,0 c 0.24,2.21 1.061,3.959 2.57,5.02 1.75,1.05 3.97,1.63 6.77,1.63 2.101,0 3.851,-0.35 5.261,-1.17 1.392,-0.7 2.102,-1.75 2.102,-3.27 0,-1.98 -2.342,-3.5 -7.12,-4.55 -2.109,-0.35 -3.62,-0.58 -4.55,-0.93 -5.96,-1.52 -10.04,-3.27 -12.142,-5.26 -2.221,-2.1 -3.391,-4.9 -3.391,-8.28 0,-4.32 1.641,-7.82 4.898,-10.74 3.5,-2.57 7.939,-3.85 13.312,-3.85 5.841,0 10.5,1.28 14.12,3.85 3.271,2.92 5.021,6.54 5.25,11.09 l -7.46,0 c -2.109,0 -3.74,-0.94 -4.79,-2.92 -0.472,-0.47 -0.932,-0.93 -1.399,-1.28 -1.28,-1.05 -3.148,-1.52 -5.49,-1.52 -2.328,0 -4.078,0.35 -5.13,0.93 -1.061,0.7 -1.641,1.75 -1.641,3.15 0,1.75 2.92,3.39 8.87,4.67 0.7,0.12 1.29,0.35 1.75,0.47 0.59,0.12 1.05,0.23 1.521,0.23 5.719,1.523 9.797,3.153 12.019,4.903 z"
     inkscape:connector-curvature="0" /><path
     style="fill:#14549f"
     id="path101"
     d="m 385.37482,50.44 0,15.64 c 0,4.55 -0.819,8.06 -2.46,10.51 -1.739,2.68 -3.609,4.55 -5.83,5.71 -2.449,1.29 -5.021,1.989 -7.699,2.22 -2.688,0.24 -4.91,0.352 -6.891,0.352 -4.08,0 -7.71,-1.051 -10.74,-3.271 -3.029,-2.21 -4.55,-5.95 -4.55,-10.97 0,-4.78 1.398,-8.17 4.2,-10.15 2.8,-1.99 6.3,-3.39 10.5,-4.09 0.59,0 1.29,-0.11 2.108,-0.35 0.812,-0.11 1.63,-0.23 2.569,-0.35 5.011,-0.7 7.58,-2.22 7.58,-4.55 0,-1.63 -0.932,-2.68 -2.682,-3.27 -1.75,-0.58 -3.39,-0.82 -4.898,-0.82 -1.521,0 -2.812,0.24 -4.09,0.71 l 0,-0.01 c -1.28,0.47 -2.222,1.29 -2.682,2.57 l -11.329,0 c 0.471,-3.5 1.989,-6.42 4.561,-8.75 3.15,-2.57 7.46,-3.85 13.07,-3.85 6.42,0 11.198,1.05 14.238,3.27 3.383,2.209 5.025,5.359 5.025,9.449 z m -10.982,15.06 0,-4.21 c -1.51,0.7 -3.851,1.41 -6.771,2.11 l -3.852,0.93 c -1.979,0.58 -3.5,1.28 -4.311,2.22 -0.819,1.28 -1.17,2.45 -1.17,3.62 0,1.75 0.46,3.029 1.521,4.08 0.932,0.93 2.33,1.398 4.32,1.398 3.14,0 5.71,-0.93 7.579,-2.68 1.756,-1.868 2.684,-4.318 2.684,-7.468 z"
     inkscape:connector-curvature="0" /><path
     style="fill:#14549f"
     id="path103"
     d="m 342.77282,57.44 0,26.5 -6.078,0 c -1.512,0 -2.922,-0.47 -4.08,-1.52 -1.052,-1.16 -1.521,-2.57 -1.521,-4.32 l 0,-22.99 c 0,-2.8 -0.811,-4.79 -2.57,-6.07 -1.63,-1.28 -3.5,-1.87 -5.479,-1.87 -1.989,0 -3.739,0.59 -5.369,1.87 -1.75,1.28 -2.688,3.27 -2.688,6.07 l 0,28.83 -11.673,0 0,-28.83 c 0,-2.8 -0.818,-4.79 -2.448,-6.07 -1.632,-1.28 -3.382,-1.87 -5.37,-1.87 -2.102,0 -3.972,0.59 -5.49,1.87 -1.63,1.28 -2.439,3.27 -2.439,6.07 l 0,28.83 -11.8,0 0,-26.5 c 0,-7.7 1.989,-12.84 5.96,-15.4 3.972,-2.69 8.399,-4.09 13.42,-4.32 2.689,0 5.142,0.35 7.592,0.93 2.448,0.47 4.67,1.64 6.648,3.39 1.75,-1.52 3.739,-2.57 6.069,-3.27 2.33,-0.59 4.79,-0.94 7.358,-1.05 4.899,0 9.45,1.28 13.649,3.85 4.201,2.68 6.309,8.05 6.309,15.87 z"
     inkscape:connector-curvature="0" /><path
     style="fill:#14549f"
     id="path105"
     d="m 270.86482,44.6 0,39.34 -12.02,0 0,-45.17 6.189,0 c 1.63,0 3.03,0.58 4.2,1.63 1.051,1.17 1.631,2.57 1.631,4.2 z"
     inkscape:connector-curvature="0" /><path
     style="fill:#14549f"
     id="path107"
     d="m 270.86482,31.3 0,3.62 -12.02,0 0,-9.46 6.189,0 c 1.63,0 3.03,0.58 4.2,1.75 1.051,1.17 1.631,2.57 1.631,4.09 z"
     inkscape:connector-curvature="0" /><path
     style="fill:#14549f"
     id="path109"
     d="m 254.29482,25.46 -16.69,58.48 -11.44,0 -8.99,-44.82 -9.22,44.82 -11.32,0 -16.81,-58.48 12.37,0 9.92,41.32 8.52,-41.32 12.96,0 8.29,41.32 8.98,-36.77 c 0.82,-3.03 2.81,-4.55 5.96,-4.55 l 7.47,0 0,0 z"
     inkscape:connector-curvature="0" /><g
     transform="translate(-17.805177,-32.07)"
     id="Layer_6" /><path
     d="m 106.73411,134.90256 c -1.98288,-1.16852 -3.73566,-2.22 -5.48649,-3.03637 L 64.577085,107.92841 60.138114,105.2412 51.496175,99.28651 C 43.321548,94.03215 38.183211,88.54267 35.966211,82.82209 L 0,119.13846 c 36.784562,5.25637 72.400664,10.50973 106.73411,15.7641 l 0,0 z"
     id="path8515"
     style="fill:url(#linearGradient7718)" /><path
     d="m 131.46955,55.70607 c 1.52069,0.232108 3.27248,0.934422 5.13832,2.218003 0.35315,-1.984892 0.93741,-3.736683 1.51968,-5.371421 0.58426,-2.919314 1.16853,-5.95568 1.51868,-9.108104 L 112.55503,18.337236 C 104.03019,10.746818 96.441773,7.4763503 90.019883,8.5288153 109.98886,22.57516 124.01666,37.439409 131.46955,55.70607 Z"
     id="path8517"
     style="fill:url(#linearGradient7750)" /><path
     d="M 77.052042,16.585445 42.019257,59.208648 c -1.133318,1.343945 -1.902794,2.722526 -2.803264,4.087849 2.453101,2.919314 5.488473,5.605513 8.875996,7.940573 1.050471,0.70232 2.101954,1.40164 3.269477,2.10395 0.117052,0.11506 0.35216,0.23211 0.469213,0.35015 l 6.070734,3.9708 c 6.190788,3.50357 12.730735,5.83962 19.384734,6.8901 0.35216,-0.46921 0.816366,-1.05048 1.633735,-1.63474 0.702311,-0.58426 1.754791,-0.93542 3.153421,-1.05247 1.28457,-0.11605 2.68821,0.2321 4.20389,1.05247 0.35016,-0.70031 0.70031,-1.28457 1.05048,-1.86884 l 0.81836,-1.63573 c 3.26948,-6.18879 5.48648,-12.494635 6.77306,-18.91753 1.05047,-6.890101 0.93642,-13.895257 -0.35017,-21.019463 -0.2341,-1.284585 -0.35216,-2.219006 -0.35216,-2.919323 -1.75179,-7.941575 -3.73568,-13.896251 -6.07073,-17.867048 -2.33505,-3.969784 -3.73769,-6.422895 -4.08784,-7.239261 -0.23211,-0.351157 -0.31825,-0.561802 -0.4323,-0.678854 0,0 -0.0395,0.02663 -0.14996,0.0946 -2.22,1.398627 -4.438999,3.26747 -6.423891,5.719568 z"
     id="path8519"
     style="fill:url(#linearGradient7747)" /><path
     d="m 141.86223,53.953285 c -0.58426,2.33605 -1.28258,4.672108 -1.98289,7.124206 1.28458,1.634738 2.10195,3.736683 2.56716,6.306846 0.69931,3.151423 0.23209,6.188793 -1.39863,8.990053 -1.16853,1.52168 -2.56916,2.68921 -4.2039,3.73668 0.81637,14.01431 -2.56916,27.3253 -10.16058,40.05504 -3.73368,5.95469 -8.17468,11.44315 -13.42905,16.46442 0.76886,0.097 1.58646,0.13715 2.219,0.11605 1.41945,-0.019 2.78573,-0.16463 4.08685,-0.46521 5.1403,-1.40063 9.69236,-5.37342 13.66215,-11.79431 L 156.2277,85.13133 c 1.75279,-3.27147 3.03637,-6.30785 3.73668,-9.22616 0.35116,-1.51868 0.58427,-3.03737 0.58427,-4.32194 0,-0.81637 0,-1.63474 -0.11705,-2.45111 -1.05048,-3.970783 -3.03537,-7.824518 -5.95469,-11.561211 -1.28457,-1.284575 -2.4531,-2.335045 -3.50358,-3.386519 l -7.94157,-7.357317 c -0.11905,2.222007 -0.58526,4.675108 -1.16953,7.126212 z"
     id="path8521"
     style="fill:url(#linearGradient7744)" /><path
     d="m 90.013883,14.716612 c 3.26947,6.655996 5.83863,14.013313 7.59042,22.186995 0.11405,1.168526 0.4662,2.335046 0.81436,3.503572 0.81736,7.590418 0.93642,14.59758 0.23411,21.252573 -1.28459,7.124218 -3.62063,13.663158 -7.12422,19.852948 l -2.4511,3.50158 c 0.58327,0.58426 1.05047,1.28357 1.63474,2.219 1.05248,0 2.68821,0 4.9042,-0.11605 2.10196,-0.11606 4.31995,-0.46821 6.774057,-0.81637 2.45011,-0.46822 4.55405,-1.05248 6.30584,-1.75279 5.72258,-1.74879 10.85889,-4.6701 15.41294,-8.52484 -1.98389,-1.98489 -3.27147,-4.2039 -3.61963,-6.656 -0.81636,-3.73669 -0.23211,-7.007161 1.86884,-9.69237 1.05048,-1.750787 2.45111,-2.686212 4.08784,-2.919313 C 115.31,32.267026 96.913753,18.470809 90.013883,14.716612 Z"
     id="path8523"
     style="fill:url(#linearGradient7741)" /><path
     d="m 131.70265,80.57928 c -1.52069,-0.35016 -3.03536,-0.81637 -4.31995,-1.40063 -4.78815,4.32094 -10.51072,7.82352 -17.40083,10.27563 -2.22101,0.81637 -5.72458,1.51868 -10.626787,2.10295 -5.02326,0.46921 -7.94157,0.58426 -8.75795,0.46921 l -0.7003,1.28357 c -0.81638,1.05048 -1.7508,1.74879 -2.80227,2.21901 -1.16853,0.35116 -2.10495,0.58325 -2.80527,0.69831 -0.69831,0.11705 -1.75078,-0.2301 -3.26946,-0.93442 -4.78816,5.02026 -10.276634,9.22515 -16.465424,12.61068 l 0,0.11705 36.667511,23.93879 c 1.75079,0.81636 3.50358,1.86784 5.48648,3.03636 0.11605,-0.2341 0.58425,-0.69931 1.40062,-1.52068 5.48648,-4.90221 10.27564,-10.39369 14.36048,-16.46542 6.66499,-11.3231 9.81641,-23.46857 9.23315,-36.43041 l 0,0 z"
     id="path8525"
     style="fill:url(#linearGradient7738)" /><path
     d="m 77.75235,93.07291 c -0.69831,-1.04947 -1.167523,-1.9849 -1.51868,-3.03437 -9.459261,-2.4521 -18.801469,-6.657 -28.026625,-12.61268 -1.284576,-0.81437 -2.56916,-1.74879 -3.855742,-2.56716 -2.919314,-2.218 -5.721575,-4.43699 -8.173682,-6.8891 -1.634739,3.97179 -1.982895,8.05763 -1.050471,12.26252 0.234105,0.81437 0.466212,1.75079 0.816366,2.68621 2.219006,5.72258 7.357316,11.21005 15.529995,16.46442 l 8.641901,5.95468 C 66.775403,101.9489 72.61404,97.86207 77.75235,93.07291 l 0,0 z"
     id="path8527"
     style="fill:url(#linearGradient7735)" /><path
     style="fill:#ffffff;fill-opacity:1"
     d="m 89.961213,8.4889753 c -2.61299,0.208347 -6.34249,2.2842117 -6.34249,2.2842117 0.11865,0.172933 0.26003,0.394817 0.43342,0.709354 0.385,0.805881 1.75744,3.240668 4.09251,7.210451 2.33506,3.970797 4.3208,9.92324 6.0726,17.864816 -4e-5,0.700316 0.11891,1.632331 0.3529,2.916916 1.28658,7.124206 1.40331,14.130383 0.35297,21.020484 -1.28658,6.422896 -3.509,12.724452 -6.77847,18.913242 l -0.82005,1.64012 c -0.35018,0.58427 -0.69826,1.16817 -1.04844,1.86849 -1.51569,-0.82037 -2.91953,-1.16448 -4.20411,-1.04843 -1.39853,0.11705 -2.45335,0.46416 -3.155673,1.04843 -0.817251,0.58425 -1.277547,1.1709 -1.62972,1.64011 C 70.632653,83.50669 64.097066,81.1681 57.906277,77.66453 L 51.83371,73.6888 c -0.117059,-0.11804 -0.360444,-0.23788 -0.477503,-0.35293 -1.16753,-0.70232 -2.209,-1.39454 -3.259472,-2.09686 -3.387526,-2.33505 -6.432579,-5.021756 -8.885696,-7.941071 0,0 -3.036915,4.685531 -3.031268,4.671221 2.45212,2.4521 5.250134,4.67465 8.169459,6.89264 1.286416,0.81837 2.576952,1.74961 3.861541,2.56398 9.225013,5.95568 18.568048,10.16019 28.027311,12.61229 0.35101,1.04948 0.817351,1.98163 1.515518,3.0311 -5.138158,4.78916 -10.976442,8.88121 -17.636429,12.26974 l 4.432451,2.54321 0,0.0208 c 6.188796,-3.38553 11.685703,-7.59203 16.473851,-12.61229 1.51867,0.70432 2.57153,1.05129 3.26987,0.93424 0.70029,-0.11506 1.6342,-0.34434 2.80269,-0.69549 1.0515,-0.47022 1.98638,-1.17095 2.80277,-2.22143 l 0.69564,-1.2768 c 0.81639,0.11505 3.73787,-0.008 8.76113,-0.4775 4.902207,-0.58427 8.408627,-1.28049 10.629617,-2.09686 6.89012,-2.4521 12.60955,-5.95574 17.39769,-10.27668 1.28459,0.58426 2.79758,1.05121 4.31828,1.40137 0.58327,12.96184 -2.56326,25.10202 -9.22827,36.42512 -4.08482,6.07174 -8.88011,11.56124 -14.36659,16.46345 -0.80532,0.81027 -1.26708,1.27843 -1.39095,1.51555 2.14194,0.7385 4.28729,1.45971 6.53967,1.64012 5.25439,-5.02127 9.6987,-10.50877 13.43239,-16.46345 7.59137,-12.72974 10.96846,-26.0336 10.15208,-40.04791 1.63477,-1.04747 3.03558,-2.21529 4.20411,-3.73698 1.63072,-2.80126 2.10068,-5.83808 1.40135,-8.9895 -0.46515,-2.570161 -1.27937,-4.676596 -2.56396,-6.311335 0.70029,-2.452097 1.39845,-4.784965 1.98265,-7.121013 0.5834,-2.447386 1.0531,-4.901675 1.17301,-7.121013 l 0,-0.01036 -0.0206,-0.01036 -3.36328,-3.394419 -0.0103,0.02076 c -0.35018,3.152426 -0.93132,6.194752 -1.51558,9.114067 -0.5822,1.634738 -1.16245,3.381819 -1.51552,5.366711 -1.86586,-1.283583 -3.61766,-1.978936 -5.13836,-2.211044 -7.45288,-18.266662 -21.48036,-33.132962 -41.449257,-47.1793067 0,0 -0.008,-0.01096 -0.0623,-0.04152 z m 0.0519,6.2282907 c 6.89989,3.754198 25.299217,17.552445 36.435507,42.040967 -1.63673,0.233101 -3.03944,1.166129 -4.08991,2.916916 -2.10095,2.685208 -2.68485,5.958682 -1.86849,9.695371 0.34815,2.4521 1.63889,4.669 3.6228,6.65389 -4.55406,3.85474 -9.69245,6.77359 -15.41503,8.52238 -1.7518,0.70032 -3.86121,1.28609 -6.31134,1.75431 -2.454107,0.34815 -4.666127,0.70399 -6.768067,0.82005 -2.21601,0.11605 -3.85749,0.11419 -4.90999,0.11419 -0.5841,-0.93543 -1.04645,-1.63717 -1.62972,-2.22143 l 2.44979,-3.49822 c 3.50359,-6.18978 5.83643,-12.73365 7.12102,-19.857868 0.70232,-6.654994 0.58901,-13.658437 -0.22837,-21.248854 -0.34816,-1.168527 -0.70601,-2.340077 -0.82008,-3.508604 -1.75159,-8.173681 -4.31865,-15.527101 -7.58812,-22.183098 z"
     id="path7690" /><g
     style="font-style:normal;font-variant:normal;font-weight:normal;font-stretch:normal;font-size:40px;line-height:125%;font-family:nunito;-inkscape-font-specification:nunito;letter-spacing:0px;word-spacing:0px;fill:#3b88be;fill-opacity:1;stroke:none;stroke-width:1px;stroke-linecap:butt;stroke-linejoin:miter;stroke-opacity:1"
     id="text4212"
     transform="translate(-14,2)"><path
       sodipodi:type="inkscape:offset"
       inkscape:radius="0"
       inkscape:original="M 448.01172 93.269531 C 447.32162 93.269531 446.76172 93.471354 446.33203 93.875 C 445.91536 94.278645 445.70703 94.799479 445.70703 95.4375 C 445.70703 96.075521 445.91536 96.596354 446.33203 97 C 446.7487 97.390625 447.30208 97.585938 447.99219 97.585938 C 448.68229 97.585938 449.23568 97.390625 449.65234 97 C 450.06901 96.596354 450.27734 96.075521 450.27734 95.4375 C 450.27734 94.786458 450.06901 94.265625 449.65234 93.875 C 449.23568 93.471354 448.68881 93.269531 448.01172 93.269531 z M 336.13672 93.425781 C 335.36849 93.425781 334.72396 93.608073 334.20312 93.972656 C 333.69531 94.324219 333.22005 95.053386 332.77734 96.160156 L 323.5 119.1875 C 323.39583 119.46093 323.34375 119.70182 323.34375 119.91016 C 323.34375 120.40495 323.53906 120.81511 323.92969 121.14062 C 324.33333 121.46614 324.78906 121.62891 325.29688 121.62891 C 326.18229 121.62891 326.78776 121.19922 327.11328 120.33984 L 329.41797 114.40234 L 342.85547 114.40234 L 345.16016 120.33984 C 345.48568 121.19922 346.08464 121.62891 346.95703 121.62891 C 347.46484 121.62891 347.92057 121.46614 348.32422 121.14062 C 348.72787 120.81511 348.92969 120.40495 348.92969 119.91016 C 348.92969 119.70182 348.8776 119.46093 348.77344 119.1875 L 339.49609 96.160156 C 339.05338 95.053386 338.57161 94.324219 338.05078 93.972656 C 337.54297 93.608073 336.90495 93.425781 336.13672 93.425781 z M 203.51953 93.582031 C 202.98568 93.582031 202.51693 93.751302 202.11328 94.089844 C 201.72266 94.428386 201.52734 94.890625 201.52734 95.476562 L 201.52734 119.61719 C 201.52734 120.20312 201.71615 120.66537 202.09375 121.00391 C 202.48438 121.32943 202.94662 121.49219 203.48047 121.49219 C 204.02734 121.49219 204.49609 121.32943 204.88672 121.00391 C 205.27735 120.67839 205.47266 120.21614 205.47266 119.61719 L 205.47266 95.476562 C 205.47266 94.877605 205.27735 94.415365 204.88672 94.089844 C 204.50912 93.751302 204.05339 93.582031 203.51953 93.582031 z M 398.22656 93.621094 C 397.74479 93.621094 397.32162 93.777344 396.95703 94.089844 C 396.60547 94.402344 396.42969 94.832031 396.42969 95.378906 L 396.42969 119.73438 C 396.42969 120.30729 396.59896 120.75 396.9375 121.0625 C 397.27605 121.36198 397.6862 121.51172 398.16797 121.51172 C 398.64974 121.51172 399.06641 121.35547 399.41797 121.04297 C 399.78256 120.71745 399.96484 120.28126 399.96484 119.73438 L 399.96484 95.378906 C 399.96484 94.832031 399.78907 94.402344 399.4375 94.089844 C 399.09896 93.777344 398.69531 93.621094 398.22656 93.621094 z M 336.13672 97.136719 L 341.74219 111.57031 L 330.53125 111.57031 L 336.13672 97.136719 z M 433.26562 101.6875 C 432.21094 101.6875 431.23438 101.79167 430.33594 102 C 429.4375 102.19531 428.6237 102.5013 427.89453 102.91797 C 427.17839 103.32162 426.61198 103.87501 426.19531 104.57812 C 425.77865 105.28125 425.57031 106.09505 425.57031 107.01953 C 425.57031 107.60547 425.62891 108.1263 425.74609 108.58203 C 425.86328 109.03776 426.05209 109.43489 426.3125 109.77344 C 426.57292 110.11198 426.85286 110.40495 427.15234 110.65234 C 427.45182 110.88672 427.84896 111.10807 428.34375 111.31641 C 428.85156 111.52474 429.32031 111.69401 429.75 111.82422 C 430.19271 111.95443 430.76563 112.11068 431.46875 112.29297 L 434.92578 113.15234 C 436.07161 113.4388 436.89193 113.81641 437.38672 114.28516 C 437.88151 114.75391 438.12891 115.37891 438.12891 116.16016 C 438.12891 117.25391 437.6862 118.08724 436.80078 118.66016 C 435.92839 119.22006 434.77604 119.5 433.34375 119.5 C 431.35156 119.487 429.46354 118.92711 427.67969 117.82031 C 427.39323 117.63802 427.09375 117.54688 426.78125 117.54688 C 426.44271 117.54688 426.16276 117.66406 425.94141 117.89844 C 425.72005 118.11979 425.60937 118.38672 425.60938 118.69922 C 425.60938 119.12891 425.80469 119.48047 426.19531 119.75391 C 426.97656 120.32683 428.01823 120.82813 429.32031 121.25781 C 430.63541 121.67448 431.98958 121.88281 433.38281 121.88281 C 434.88021 121.88281 436.19531 121.68099 437.32812 121.27734 C 438.46094 120.86068 439.3724 120.19662 440.0625 119.28516 C 440.76563 118.3737 441.11719 117.25391 441.11719 115.92578 C 441.11719 114.51953 440.69401 113.36718 439.84766 112.46875 C 439.01432 111.55729 437.61458 110.86068 435.64844 110.37891 L 432.26953 109.53906 C 430.85026 109.1875 429.92578 108.85547 429.49609 108.54297 C 429.06641 108.21745 428.85156 107.66407 428.85156 106.88281 C 428.85156 105.91927 429.26823 105.21614 430.10156 104.77344 C 430.9349 104.3177 432.05469 104.08984 433.46094 104.08984 C 433.90364 104.08984 434.33984 104.12237 434.76953 104.1875 C 435.19922 104.23957 435.6224 104.32421 436.03906 104.44141 C 436.45573 104.54557 436.78125 104.63672 437.01562 104.71484 C 437.26302 104.79297 437.57552 104.91016 437.95312 105.06641 C 438.34375 105.20964 438.5586 105.28776 438.59766 105.30078 C 438.80599 105.37891 439.00781 105.41797 439.20312 105.41797 C 439.54167 105.41797 439.80859 105.3138 440.00391 105.10547 C 440.21224 104.88412 440.31641 104.6237 440.31641 104.32422 C 440.31641 103.81641 440.0625 103.43229 439.55469 103.17188 C 438.85156 102.79427 437.9401 102.45573 436.82031 102.15625 C 435.71354 101.84375 434.52865 101.6875 433.26562 101.6875 z M 462.5625 101.6875 C 461.50781 101.6875 460.53125 101.79167 459.63281 102 C 458.73437 102.19531 457.92057 102.5013 457.19141 102.91797 C 456.47526 103.32162 455.90885 103.87501 455.49219 104.57812 C 455.07552 105.28125 454.86719 106.09505 454.86719 107.01953 C 454.86719 107.60547 454.92578 108.1263 455.04297 108.58203 C 455.16016 109.03776 455.34895 109.43489 455.60938 109.77344 C 455.86979 110.11198 456.14974 110.40495 456.44922 110.65234 C 456.7487 110.88672 457.14583 111.10807 457.64062 111.31641 C 458.14844 111.52474 458.61719 111.69401 459.04688 111.82422 C 459.48958 111.95443 460.0625 112.11068 460.76562 112.29297 L 464.22266 113.15234 C 465.36849 113.4388 466.1888 113.81641 466.68359 114.28516 C 467.17838 114.75391 467.42578 115.37891 467.42578 116.16016 C 467.42578 117.25391 466.98307 118.08724 466.09766 118.66016 C 465.22526 119.22006 464.07292 119.5 462.64062 119.5 C 460.64844 119.487 458.76042 118.92711 456.97656 117.82031 C 456.6901 117.63802 456.39062 117.54687 456.07812 117.54688 C 455.73959 117.54688 455.45964 117.66406 455.23828 117.89844 C 455.01693 118.11979 454.90625 118.38672 454.90625 118.69922 C 454.90625 119.12891 455.10156 119.48047 455.49219 119.75391 C 456.27344 120.32683 457.31511 120.82813 458.61719 121.25781 C 459.93229 121.67448 461.28646 121.88281 462.67969 121.88281 C 464.17708 121.88281 465.49219 121.68099 466.625 121.27734 C 467.75781 120.86068 468.66927 120.19662 469.35938 119.28516 C 470.0625 118.3737 470.41406 117.25391 470.41406 115.92578 C 470.41406 114.51953 469.99089 113.36718 469.14453 112.46875 C 468.3112 111.55729 466.91145 110.86068 464.94531 110.37891 L 461.56641 109.53906 C 460.14713 109.1875 459.22266 108.85547 458.79297 108.54297 C 458.36328 108.21745 458.14844 107.66407 458.14844 106.88281 C 458.14844 105.91927 458.5651 105.21614 459.39844 104.77344 C 460.23177 104.3177 461.35156 104.08984 462.75781 104.08984 C 463.20052 104.08984 463.63672 104.12237 464.06641 104.1875 C 464.49609 104.23957 464.91927 104.32421 465.33594 104.44141 C 465.7526 104.54557 466.07813 104.63672 466.3125 104.71484 C 466.5599 104.79297 466.8724 104.91016 467.25 105.06641 C 467.64063 105.20964 467.85547 105.28776 467.89453 105.30078 C 468.10286 105.37891 468.30469 105.41797 468.5 105.41797 C 468.83855 105.41797 469.10547 105.3138 469.30078 105.10547 C 469.50911 104.88412 469.61328 104.6237 469.61328 104.32422 C 469.61328 103.81641 469.35937 103.4323 468.85156 103.17188 C 468.14844 102.79428 467.23698 102.45573 466.11719 102.15625 C 465.01041 101.84375 463.82552 101.6875 462.5625 101.6875 z M 222.19141 101.72656 C 220.77213 101.72656 219.50911 102.05209 218.40234 102.70312 C 217.29557 103.34115 216.46224 104.25911 215.90234 105.45703 L 215.90234 103.64062 C 215.90234 103.15886 215.72006 102.78125 215.35547 102.50781 C 215.00391 102.23437 214.59375 102.09766 214.125 102.09766 C 213.65625 102.09766 213.23959 102.2474 212.875 102.54688 C 212.52344 102.83334 212.34766 103.23047 212.34766 103.73828 L 212.34766 119.85156 C 212.34766 120.3724 212.51693 120.78255 212.85547 121.08203 C 213.19401 121.36849 213.60416 121.51172 214.08594 121.51172 C 214.58073 121.51172 215.00391 121.36849 215.35547 121.08203 C 215.72006 120.78255 215.90234 120.3724 215.90234 119.85156 L 215.90234 110.32031 C 215.90234 108.36719 216.41016 106.85026 217.42578 105.76953 C 218.44141 104.67578 219.79557 104.12891 221.48828 104.12891 C 224.32683 104.12891 225.74609 105.92578 225.74609 109.51953 L 225.74609 119.83203 C 225.74609 120.35286 225.91537 120.76302 226.25391 121.0625 C 226.60547 121.36198 227.01562 121.51172 227.48438 121.51172 C 227.96614 121.51172 228.38281 121.36198 228.73438 121.0625 C 229.08594 120.76302 229.26172 120.35286 229.26172 119.83203 L 229.26172 110.41797 C 229.26172 108.36068 229.78906 106.79818 230.84375 105.73047 C 231.89844 104.66276 233.23958 104.12891 234.86719 104.12891 C 236.23437 104.12891 237.28906 104.54557 238.03125 105.37891 C 238.77344 106.19922 239.14453 107.41666 239.14453 109.03125 L 239.14453 119.85156 C 239.14453 120.3724 239.3138 120.78255 239.65234 121.08203 C 239.99088 121.36849 240.40104 121.51172 240.88281 121.51172 C 241.36458 121.51172 241.78125 121.36849 242.13281 121.08203 C 242.49739 120.78255 242.67969 120.3724 242.67969 119.85156 L 242.67969 109.16797 C 242.67969 107.89192 242.49089 106.76562 242.11328 105.78906 C 241.7487 104.8125 241.23437 104.03776 240.57031 103.46484 C 239.91927 102.87891 239.17708 102.44271 238.34375 102.15625 C 237.51042 101.86979 236.59896 101.72656 235.60938 101.72656 C 233.89062 101.72656 232.43229 102.11068 231.23438 102.87891 C 230.03645 103.63412 229.16406 104.76693 228.61719 106.27734 C 228.21354 104.81901 227.44531 103.69922 226.3125 102.91797 C 225.17969 102.1237 223.80599 101.72656 222.19141 101.72656 z M 255.57031 101.72656 C 252.78385 101.72656 250.38151 102.29297 248.36328 103.42578 C 247.9987 103.63411 247.81641 103.93359 247.81641 104.32422 C 247.81641 104.66276 247.94011 104.97526 248.1875 105.26172 C 248.4349 105.53515 248.72787 105.67187 249.06641 105.67188 C 249.2487 105.67188 249.40495 105.6374 249.53516 105.57227 C 250.19922 105.27279 250.75911 105.03841 251.21484 104.86914 C 251.67057 104.69987 252.29557 104.5306 253.08984 104.36133 C 253.88411 104.19205 254.67838 104.10742 255.47266 104.10742 C 256.80078 104.10742 257.83594 104.43945 258.57812 105.10352 C 259.32031 105.76758 259.69141 106.79623 259.69141 108.18945 L 259.69141 110.31836 C 258.24609 110.31836 257.00912 110.33789 255.98047 110.37695 C 254.96484 110.41602 253.97526 110.48763 253.01172 110.5918 C 252.04818 110.68294 251.25391 110.82617 250.62891 111.02148 C 250.00391 111.20377 249.43099 111.44466 248.91016 111.74414 C 248.38932 112.0306 247.98568 112.38867 247.69922 112.81836 C 247.41276 113.23503 247.1914 113.72331 247.03516 114.2832 C 246.8789 114.8431 246.80078 115.49414 246.80078 116.23633 C 246.80078 118.0332 247.4388 119.41992 248.71484 120.39648 C 249.99088 121.37304 251.65104 121.86133 253.69531 121.86133 L 253.69531 121.86328 C 256.49479 121.86328 258.5 120.59375 259.71094 118.05469 L 259.71094 119.92969 C 259.71094 120.43749 259.8737 120.83463 260.19922 121.12109 C 260.53776 121.39453 260.9414 121.53125 261.41016 121.53125 C 261.8789 121.53125 262.28906 121.38802 262.64062 121.10156 C 263.00521 120.80208 263.1875 120.39844 263.1875 119.89062 L 263.1875 108.50391 C 263.1875 106.19922 262.51042 104.49349 261.15625 103.38672 C 259.8151 102.27995 257.95312 101.72656 255.57031 101.72656 z M 276.41016 101.72656 C 274.57422 101.72656 272.97917 102.1888 271.625 103.11328 C 270.27083 104.03776 269.25521 105.26172 268.57812 106.78516 C 267.91406 108.29558 267.58203 110.0013 267.58203 111.90234 C 267.58203 113.24349 267.77734 114.49349 268.16797 115.65234 C 268.57162 116.8112 269.13802 117.82682 269.86719 118.69922 C 270.60937 119.57161 271.54687 120.26172 272.67969 120.76953 C 273.82552 121.26432 275.10156 121.51172 276.50781 121.51172 C 278.00521 121.51172 279.28776 121.16667 280.35547 120.47656 C 281.4362 119.77344 282.24349 118.82942 282.77734 117.64453 L 282.77734 121.51172 C 282.77734 123.38672 282.26302 124.81901 281.23438 125.80859 C 280.20573 126.8112 278.68229 127.3125 276.66406 127.3125 C 276.35156 127.3125 276.03906 127.29755 275.72656 127.27148 C 275.42708 127.24542 275.15365 127.21289 274.90625 127.17383 C 274.67188 127.14776 274.40495 127.10219 274.10547 127.03711 C 273.81901 126.97198 273.58463 126.91989 273.40234 126.88086 C 273.23307 126.84179 273.00521 126.77669 272.71875 126.68555 C 272.44532 126.5944 272.25651 126.52929 272.15234 126.49023 C 272.04818 126.45117 271.85938 126.37956 271.58594 126.27539 C 271.32552 126.17122 271.16927 126.11263 271.11719 126.09961 C 270.97396 126.04754 270.82422 126.02148 270.66797 126.02148 C 270.34245 126.02148 270.0625 126.13867 269.82812 126.37305 C 269.60677 126.62044 269.49609 126.9069 269.49609 127.23242 C 269.49609 127.7142 269.74349 128.09179 270.23828 128.36523 C 271.99609 129.30273 274.21614 129.77148 276.89844 129.77148 L 276.89844 129.77344 C 279.77604 129.77344 282.04167 129.07032 283.69531 127.66406 C 285.36198 126.25782 286.19531 124.16797 286.19531 121.39453 L 286.19531 103.75781 C 286.19531 103.23698 286.03256 102.83333 285.70703 102.54688 C 285.38151 102.2474 284.99088 102.09766 284.53516 102.09766 C 284.11849 102.09766 283.74739 102.22786 283.42188 102.48828 C 283.10938 102.73567 282.9336 103.08072 282.89453 103.52344 L 282.89453 105.49609 C 281.60547 102.98307 279.44401 101.72656 276.41016 101.72656 z M 300.12109 101.72656 C 298.19401 101.72656 296.50781 102.19531 295.0625 103.13281 C 293.61719 104.07031 292.53645 105.28776 291.82031 106.78516 C 291.10417 108.28256 290.74609 109.9362 290.74609 111.74609 C 290.74609 113.80339 291.16927 115.60677 292.01562 117.15625 C 292.875 118.69271 294.02734 119.85808 295.47266 120.65234 C 296.91797 121.44662 298.55209 121.85026 300.375 121.86328 C 303.29167 121.86328 305.77864 120.9388 307.83594 119.08984 C 308.20052 118.76432 308.38281 118.39323 308.38281 117.97656 C 308.38281 117.65104 308.27214 117.37109 308.05078 117.13672 C 307.84245 116.88932 307.58203 116.76563 307.26953 116.76562 C 307.00912 116.76562 306.76172 116.85677 306.52734 117.03906 C 305.58984 117.75521 304.65885 118.32161 303.73438 118.73828 C 302.80989 119.15495 301.76823 119.36328 300.60938 119.36328 C 298.77344 119.33721 297.26953 118.75128 296.09766 117.60547 C 294.92578 116.44662 294.32683 114.7474 294.30078 112.50781 L 307.69922 112.50781 C 308.11589 112.50781 308.42839 112.38411 308.63672 112.13672 C 308.84505 111.88932 308.94922 111.57682 308.94922 111.19922 C 308.91015 109.88411 308.72135 108.67968 308.38281 107.58594 C 308.04427 106.47916 307.53645 105.48308 306.85938 104.59766 C 306.18229 103.69922 305.27083 102.99609 304.125 102.48828 C 302.97917 101.98047 301.64453 101.72656 300.12109 101.72656 z M 362.95312 101.72656 C 361.45572 101.72656 360.14062 102.04557 359.00781 102.68359 C 357.88802 103.32161 357.08073 104.23307 356.58594 105.41797 L 356.58594 103.71875 C 356.58594 103.21094 356.41015 102.82032 356.05859 102.54688 C 355.72005 102.26042 355.30989 102.11719 354.82812 102.11719 C 354.34635 102.11719 353.92968 102.26693 353.57812 102.56641 C 353.22656 102.85287 353.05078 103.25651 353.05078 103.77734 L 353.05078 119.83203 C 353.05078 120.36588 353.22005 120.78255 353.55859 121.08203 C 353.89713 121.36849 354.30729 121.51172 354.78906 121.51172 C 355.27083 121.51172 355.6875 121.36198 356.03906 121.0625 C 356.40364 120.76302 356.58594 120.35286 356.58594 119.83203 L 356.58594 110.08594 C 356.67708 108.25 357.23698 106.79818 358.26562 105.73047 C 359.29427 104.66276 360.55729 104.12891 362.05469 104.12891 C 363.46094 104.12891 364.54818 104.5651 365.31641 105.4375 C 366.09765 106.30989 366.48828 107.57943 366.48828 109.24609 L 366.48828 119.83203 C 366.48828 120.36588 366.65755 120.78255 366.99609 121.08203 C 367.34765 121.36849 367.76432 121.51172 368.24609 121.51172 C 368.72786 121.51172 369.13802 121.36849 369.47656 121.08203 C 369.82812 120.78255 370.00391 120.36588 370.00391 119.83203 L 370.00391 109.28516 C 370.00391 106.7461 369.36588 104.85156 368.08984 103.60156 C 366.8138 102.35156 365.10156 101.72656 362.95312 101.72656 z M 382.83594 101.72656 C 380.04948 101.72656 377.64713 102.29297 375.62891 103.42578 C 375.26432 103.63411 375.08203 103.93359 375.08203 104.32422 C 375.08203 104.66276 375.20572 104.97526 375.45312 105.26172 C 375.70052 105.53515 375.99349 105.67188 376.33203 105.67188 C 376.51432 105.67188 376.67057 105.6374 376.80078 105.57227 C 377.46485 105.27279 378.02474 105.03841 378.48047 104.86914 C 378.9362 104.69987 379.5612 104.5306 380.35547 104.36133 C 381.14974 104.19205 381.94401 104.10742 382.73828 104.10742 C 384.06641 104.10742 385.10156 104.43945 385.84375 105.10352 C 386.58594 105.76758 386.95703 106.79623 386.95703 108.18945 L 386.95703 110.31836 C 385.51172 110.31836 384.27474 110.33789 383.24609 110.37695 C 382.23047 110.41602 381.24088 110.48763 380.27734 110.5918 C 379.3138 110.68294 378.51953 110.82617 377.89453 111.02148 C 377.26953 111.20377 376.69661 111.44466 376.17578 111.74414 C 375.65495 112.0306 375.2513 112.38867 374.96484 112.81836 C 374.67838 113.23503 374.45703 113.72331 374.30078 114.2832 C 374.14453 114.8431 374.06641 115.49414 374.06641 116.23633 C 374.06641 118.0332 374.70443 119.41992 375.98047 120.39648 C 377.25651 121.37304 378.91666 121.86133 380.96094 121.86133 L 380.96094 121.86328 C 383.76042 121.86328 385.76562 120.59375 386.97656 118.05469 L 386.97656 119.92969 C 386.97656 120.43749 387.13932 120.83463 387.46484 121.12109 C 387.80338 121.39453 388.20703 121.53125 388.67578 121.53125 C 389.14453 121.53125 389.55469 121.38802 389.90625 121.10156 C 390.27084 120.80208 390.45312 120.39844 390.45312 119.89062 L 390.45312 108.50391 C 390.45312 106.19922 389.77604 104.49349 388.42188 103.38672 C 387.08073 102.27995 385.21875 101.72656 382.83594 101.72656 z M 421.23438 102.07812 C 420.55729 102.07812 420.04297 102.4362 419.69141 103.15234 L 413.71484 115.80859 L 407.77734 103.21094 C 407.45182 102.52083 406.94401 102.17578 406.25391 102.17578 C 405.79818 102.17578 405.38802 102.33203 405.02344 102.64453 C 404.67188 102.95703 404.49609 103.34766 404.49609 103.81641 C 404.49609 104.10287 404.55469 104.36328 404.67188 104.59766 L 411.9375 119.57812 L 408.44141 126.98047 C 408.32422 127.24088 408.26562 127.48828 408.26562 127.72266 C 408.26562 128.16537 408.4349 128.52995 408.77344 128.81641 C 409.11198 129.11589 409.5026 129.26563 409.94531 129.26562 C 410.64843 129.26562 411.17578 128.90104 411.52734 128.17188 L 422.81641 104.36328 C 422.90755 104.14193 422.95312 103.92057 422.95312 103.69922 C 422.95312 103.25651 422.77735 102.87891 422.42578 102.56641 C 422.08724 102.24089 421.6901 102.07813 421.23438 102.07812 z M 448.03125 102.09766 C 447.54948 102.09766 447.12631 102.25391 446.76172 102.56641 C 446.41016 102.87891 446.23438 103.30859 446.23438 103.85547 L 446.23438 119.73438 C 446.23438 120.3073 446.40365 120.75 446.74219 121.0625 C 447.08073 121.36198 447.49088 121.51172 447.97266 121.51172 C 448.45443 121.51172 448.8711 121.35547 449.22266 121.04297 C 449.58724 120.71745 449.76953 120.28126 449.76953 119.73438 L 449.76953 103.85547 C 449.76953 103.30859 449.59375 102.87891 449.24219 102.56641 C 448.90365 102.25391 448.5 102.09766 448.03125 102.09766 z M 277.05469 104.12891 C 277.88802 104.12891 278.63672 104.27213 279.30078 104.55859 C 279.96485 104.83203 280.50521 105.20964 280.92188 105.69141 C 281.35156 106.16016 281.70312 106.72656 281.97656 107.39062 C 282.26302 108.04167 282.46484 108.72527 282.58203 109.44141 C 282.69922 110.14453 282.75781 110.89974 282.75781 111.70703 C 282.75781 114.0638 282.22396 115.89974 281.15625 117.21484 C 280.08854 118.51693 278.72135 119.16797 277.05469 119.16797 C 275.33594 119.16797 273.91667 118.54297 272.79688 117.29297 C 271.67708 116.04297 271.11719 114.20704 271.11719 111.78516 C 271.11719 110.33985 271.31901 109.05729 271.72266 107.9375 C 272.1263 106.81771 272.78385 105.90625 273.69531 105.20312 C 274.60677 104.48698 275.72656 104.12891 277.05469 104.12891 z M 300.31641 104.12891 C 302.07422 104.12891 303.40885 104.70833 304.32031 105.86719 C 305.23177 107.02604 305.74609 108.51693 305.86328 110.33984 L 294.35938 110.33984 C 294.42451 109.53255 294.59378 108.77083 294.86719 108.05469 C 295.15365 107.32552 295.53125 106.66797 296 106.08203 C 296.48177 105.48307 297.09375 105.00781 297.83594 104.65625 C 298.57812 104.30468 299.40495 104.12891 300.31641 104.12891 z M 259.69141 112.34961 L 259.69141 112.93555 C 259.69141 114.84961 259.125 116.42513 257.99219 117.66211 C 256.87239 118.89909 255.5638 119.51758 254.06641 119.51758 L 254.06641 119.51953 C 252.85547 119.51953 251.89843 119.24609 251.19531 118.69922 C 250.49219 118.13932 250.14062 117.26692 250.14062 116.08203 C 250.14062 115.43099 250.23177 114.89714 250.41406 114.48047 C 250.60937 114.0638 250.90234 113.71224 251.29297 113.42578 C 251.6836 113.1263 252.26953 112.90495 253.05078 112.76172 C 253.83203 112.60547 254.73047 112.5013 255.74609 112.44922 C 256.76171 112.38409 258.07682 112.34961 259.69141 112.34961 z M 386.95703 112.34961 L 386.95703 112.93555 C 386.95703 114.84961 386.39062 116.42513 385.25781 117.66211 C 384.13802 118.89909 382.82943 119.51758 381.33203 119.51758 L 381.33203 119.51953 C 380.1211 119.51953 379.16406 119.24609 378.46094 118.69922 C 377.75781 118.13932 377.40625 117.26692 377.40625 116.08203 C 377.40625 115.43099 377.49739 114.89714 377.67969 114.48047 C 377.875 114.0638 378.16797 113.71224 378.55859 113.42578 C 378.94921 113.1263 379.53515 112.90495 380.31641 112.76172 C 381.09765 112.60547 381.99609 112.5013 383.01172 112.44922 C 384.02735 112.38409 385.34245 112.34961 386.95703 112.34961 z "
       id="path4991"
       d="m 448.01172,93.269531 c -0.6901,0 -1.25,0.201823 -1.67969,0.605469 -0.41667,0.403645 -0.625,0.924479 -0.625,1.5625 0,0.638021 0.20833,1.158854 0.625,1.5625 0.41667,0.390625 0.97005,0.585938 1.66016,0.585938 0.6901,0 1.24349,-0.195313 1.66015,-0.585938 0.41667,-0.403646 0.625,-0.924479 0.625,-1.5625 0,-0.651042 -0.20833,-1.171875 -0.625,-1.5625 -0.41666,-0.403646 -0.96353,-0.605469 -1.64062,-0.605469 z m -111.875,0.15625 c -0.76823,0 -1.41276,0.182292 -1.9336,0.546875 -0.50781,0.351563 -0.98307,1.08073 -1.42578,2.1875 L 323.5,119.1875 c -0.10417,0.27343 -0.15625,0.51432 -0.15625,0.72266 0,0.49479 0.19531,0.90495 0.58594,1.23046 0.40364,0.32552 0.85937,0.48829 1.36719,0.48829 0.88541,0 1.49088,-0.42969 1.8164,-1.28907 l 2.30469,-5.9375 13.4375,0 2.30469,5.9375 c 0.32552,0.85938 0.92448,1.28907 1.79687,1.28907 0.50781,0 0.96354,-0.16277 1.36719,-0.48829 0.40365,-0.32551 0.60547,-0.73567 0.60547,-1.23046 0,-0.20834 -0.0521,-0.44923 -0.15625,-0.72266 l -9.27735,-23.027344 c -0.44271,-1.10677 -0.92448,-1.835937 -1.44531,-2.1875 -0.50781,-0.364583 -1.14583,-0.546875 -1.91406,-0.546875 z m -132.61719,0.15625 c -0.53385,0 -1.0026,0.169271 -1.40625,0.507813 -0.39062,0.338542 -0.58594,0.800781 -0.58594,1.386718 l 0,24.140628 c 0,0.58593 0.18881,1.04818 0.56641,1.38672 0.39063,0.32552 0.85287,0.48828 1.38672,0.48828 0.54687,0 1.01562,-0.16276 1.40625,-0.48828 0.39063,-0.32552 0.58594,-0.78777 0.58594,-1.38672 l 0,-24.140628 c 0,-0.598957 -0.19531,-1.061197 -0.58594,-1.386718 -0.3776,-0.338542 -0.83333,-0.507813 -1.36719,-0.507813 z m 194.70703,0.03906 c -0.48177,0 -0.90494,0.15625 -1.26953,0.46875 -0.35156,0.3125 -0.52734,0.742187 -0.52734,1.289062 l 0,24.355474 c 0,0.57291 0.16927,1.01562 0.50781,1.32812 0.33855,0.29948 0.7487,0.44922 1.23047,0.44922 0.48177,0 0.89844,-0.15625 1.25,-0.46875 0.36459,-0.32552 0.54687,-0.76171 0.54687,-1.30859 l 0,-24.355474 c 0,-0.546875 -0.17577,-0.976562 -0.52734,-1.289062 -0.33854,-0.3125 -0.74219,-0.46875 -1.21094,-0.46875 z m -62.08984,3.515625 5.60547,14.433591 -11.21094,0 5.60547,-14.433591 z m 97.1289,4.550781 c -1.05468,0 -2.03124,0.10417 -2.92968,0.3125 -0.89844,0.19531 -1.71224,0.5013 -2.44141,0.91797 -0.71614,0.40365 -1.28255,0.95704 -1.69922,1.66015 -0.41666,0.70313 -0.625,1.51693 -0.625,2.44141 0,0.58594 0.0586,1.10677 0.17578,1.5625 0.11719,0.45573 0.306,0.85286 0.56641,1.19141 0.26042,0.33854 0.54036,0.63151 0.83984,0.8789 0.29948,0.23438 0.69662,0.45573 1.19141,0.66407 0.50781,0.20833 0.97656,0.3776 1.40625,0.50781 0.44271,0.13021 1.01563,0.28646 1.71875,0.46875 l 3.45703,0.85937 c 1.14583,0.28646 1.96615,0.66407 2.46094,1.13282 0.49479,0.46875 0.74219,1.09375 0.74219,1.875 0,1.09375 -0.44271,1.92708 -1.32813,2.5 -0.87239,0.5599 -2.02474,0.83984 -3.45703,0.83984 -1.99219,-0.013 -3.88021,-0.57289 -5.66406,-1.67969 -0.28646,-0.18229 -0.58594,-0.27343 -0.89844,-0.27343 -0.33854,0 -0.61849,0.11718 -0.83984,0.35156 -0.22136,0.22135 -0.33204,0.48828 -0.33203,0.80078 0,0.42969 0.19531,0.78125 0.58593,1.05469 0.78125,0.57292 1.82292,1.07422 3.125,1.5039 1.3151,0.41667 2.66927,0.625 4.0625,0.625 1.4974,0 2.8125,-0.20182 3.94531,-0.60547 1.13282,-0.41666 2.04428,-1.08072 2.73438,-1.99218 0.70313,-0.91146 1.05469,-2.03125 1.05469,-3.35938 0,-1.40625 -0.42318,-2.5586 -1.26953,-3.45703 -0.83334,-0.91146 -2.23308,-1.60807 -4.19922,-2.08984 l -3.37891,-0.83985 c -1.41927,-0.35156 -2.34375,-0.68359 -2.77344,-0.99609 -0.42968,-0.32552 -0.64453,-0.8789 -0.64453,-1.66016 0,-0.96354 0.41667,-1.66667 1.25,-2.10937 0.83334,-0.45574 1.95313,-0.6836 3.35938,-0.6836 0.4427,0 0.8789,0.0325 1.30859,0.0977 0.42969,0.0521 0.85287,0.13671 1.26953,0.25391 0.41667,0.10416 0.74219,0.19531 0.97656,0.27343 0.2474,0.0781 0.5599,0.19532 0.9375,0.35157 0.39063,0.14323 0.60548,0.22135 0.64454,0.23437 0.20833,0.0781 0.41015,0.11719 0.60546,0.11719 0.33855,0 0.60547,-0.10417 0.80079,-0.3125 0.20833,-0.22135 0.3125,-0.48177 0.3125,-0.78125 0,-0.50781 -0.25391,-0.89193 -0.76172,-1.15234 -0.70313,-0.37761 -1.61459,-0.71615 -2.73438,-1.01563 -1.10677,-0.3125 -2.29166,-0.46875 -3.55469,-0.46875 z m 29.29688,0 c -1.05469,0 -2.03125,0.10417 -2.92969,0.3125 -0.89844,0.19531 -1.71224,0.5013 -2.4414,0.91797 -0.71615,0.40365 -1.28256,0.95704 -1.69922,1.66015 -0.41667,0.70313 -0.625,1.51693 -0.625,2.44141 0,0.58594 0.0586,1.10677 0.17578,1.5625 0.11719,0.45573 0.30598,0.85286 0.56641,1.19141 0.26041,0.33854 0.54036,0.63151 0.83984,0.8789 0.29948,0.23438 0.69661,0.45573 1.1914,0.66407 0.50782,0.20833 0.97657,0.3776 1.40626,0.50781 0.4427,0.13021 1.01562,0.28646 1.71874,0.46875 l 3.45704,0.85937 c 1.14583,0.28646 1.96614,0.66407 2.46093,1.13282 0.49479,0.46875 0.74219,1.09375 0.74219,1.875 0,1.09375 -0.44271,1.92708 -1.32812,2.5 -0.8724,0.5599 -2.02474,0.83984 -3.45704,0.83984 -1.99218,-0.013 -3.8802,-0.57289 -5.66406,-1.67969 -0.28646,-0.18229 -0.58594,-0.27344 -0.89844,-0.27343 -0.33853,0 -0.61848,0.11718 -0.83984,0.35156 -0.22135,0.22135 -0.33203,0.48828 -0.33203,0.80078 0,0.42969 0.19531,0.78125 0.58594,1.05469 0.78125,0.57292 1.82292,1.07422 3.125,1.5039 1.3151,0.41667 2.66927,0.625 4.0625,0.625 1.49739,0 2.8125,-0.20182 3.94531,-0.60547 1.13281,-0.41666 2.04427,-1.08072 2.73438,-1.99218 0.70312,-0.91146 1.05468,-2.03125 1.05468,-3.35938 0,-1.40625 -0.42317,-2.5586 -1.26953,-3.45703 -0.83333,-0.91146 -2.23308,-1.60807 -4.19922,-2.08984 l -3.3789,-0.83985 c -1.41928,-0.35156 -2.34375,-0.68359 -2.77344,-0.99609 -0.42969,-0.32552 -0.64453,-0.8789 -0.64453,-1.66016 0,-0.96354 0.41666,-1.66667 1.25,-2.10937 0.83333,-0.45574 1.95312,-0.6836 3.35937,-0.6836 0.44271,0 0.87891,0.0325 1.3086,0.0977 0.42968,0.0521 0.85286,0.13671 1.26953,0.25391 0.41666,0.10416 0.74219,0.19531 0.97656,0.27343 0.2474,0.0781 0.5599,0.19532 0.9375,0.35157 0.39063,0.14323 0.60547,0.22135 0.64453,0.23437 0.20833,0.0781 0.41016,0.11719 0.60547,0.11719 0.33855,0 0.60547,-0.10417 0.80078,-0.3125 0.20833,-0.22135 0.3125,-0.48177 0.3125,-0.78125 0,-0.50781 -0.25391,-0.89192 -0.76172,-1.15234 -0.70312,-0.3776 -1.61458,-0.71615 -2.73437,-1.01563 -1.10678,-0.3125 -2.29167,-0.46875 -3.55469,-0.46875 z m -240.37109,0.0391 c -1.41928,0 -2.6823,0.32553 -3.78907,0.97656 -1.10677,0.63803 -1.9401,1.55599 -2.5,2.75391 l 0,-1.81641 c 0,-0.48176 -0.18228,-0.85937 -0.54687,-1.13281 -0.35156,-0.27344 -0.76172,-0.41015 -1.23047,-0.41015 -0.46875,0 -0.88541,0.14974 -1.25,0.44922 -0.35156,0.28646 -0.52734,0.68359 -0.52734,1.1914 l 0,16.11328 c 0,0.52084 0.16927,0.93099 0.50781,1.23047 0.33854,0.28646 0.74869,0.42969 1.23047,0.42969 0.49479,0 0.91797,-0.14323 1.26953,-0.42969 0.36459,-0.29948 0.54687,-0.70963 0.54687,-1.23047 l 0,-9.53125 c 0,-1.95312 0.50782,-3.47005 1.52344,-4.55078 1.01563,-1.09375 2.36979,-1.64062 4.0625,-1.64062 2.83855,0 4.25781,1.79687 4.25781,5.39062 l 0,10.3125 c 0,0.52083 0.16928,0.93099 0.50782,1.23047 0.35156,0.29948 0.76171,0.44922 1.23047,0.44922 0.48176,0 0.89843,-0.14974 1.25,-0.44922 0.35156,-0.29948 0.52734,-0.70964 0.52734,-1.23047 l 0,-9.41406 c 0,-2.05729 0.52734,-3.61979 1.58203,-4.6875 1.05469,-1.06771 2.39583,-1.60156 4.02344,-1.60156 1.36718,0 2.42187,0.41666 3.16406,1.25 0.74219,0.82031 1.11328,2.03775 1.11328,3.65234 l 0,10.82031 c 0,0.52084 0.16927,0.93099 0.50781,1.23047 0.33854,0.28646 0.7487,0.42969 1.23047,0.42969 0.48177,0 0.89844,-0.14323 1.25,-0.42969 0.36458,-0.29948 0.54688,-0.70963 0.54688,-1.23047 l 0,-10.68359 c 0,-1.27605 -0.1888,-2.40235 -0.56641,-3.37891 -0.36458,-0.97656 -0.87891,-1.7513 -1.54297,-2.32422 -0.65104,-0.58593 -1.39323,-1.02213 -2.22656,-1.30859 -0.83333,-0.28646 -1.74479,-0.42969 -2.73437,-0.42969 -1.71876,0 -3.17709,0.38412 -4.375,1.15235 -1.19793,0.75521 -2.07032,1.88802 -2.61719,3.39843 -0.40365,-1.45833 -1.17188,-2.57812 -2.30469,-3.35937 -1.13281,-0.79427 -2.50651,-1.19141 -4.12109,-1.19141 z m 33.3789,0 c -2.78646,0 -5.1888,0.56641 -7.20703,1.69922 -0.36458,0.20833 -0.54687,0.50781 -0.54687,0.89844 0,0.33854 0.1237,0.65104 0.37109,0.9375 0.2474,0.27343 0.54037,0.41015 0.87891,0.41016 0.18229,0 0.33854,-0.0345 0.46875,-0.0996 0.66406,-0.29948 1.22395,-0.53386 1.67968,-0.70313 0.45573,-0.16927 1.08073,-0.33854 1.875,-0.50781 0.79427,-0.16928 1.58854,-0.25391 2.38282,-0.25391 1.32812,0 2.36328,0.33203 3.10546,0.9961 0.74219,0.66406 1.11329,1.69271 1.11329,3.08593 l 0,2.12891 c -1.44532,0 -2.68229,0.0195 -3.71094,0.0586 -1.01563,0.0391 -2.00521,0.11068 -2.96875,0.21485 -0.96354,0.0911 -1.75781,0.23437 -2.38281,0.42968 -0.625,0.18229 -1.19792,0.42318 -1.71875,0.72266 -0.52084,0.28646 -0.92448,0.64453 -1.21094,1.07422 -0.28646,0.41667 -0.50782,0.90495 -0.66406,1.46484 -0.15626,0.5599 -0.23438,1.21094 -0.23438,1.95313 0,1.79687 0.63802,3.18359 1.91406,4.16015 1.27604,0.97656 2.9362,1.46485 4.98047,1.46485 l 0,0.002 c 2.79948,0 4.80469,-1.26953 6.01563,-3.80859 l 0,1.875 c 0,0.5078 0.16276,0.90494 0.48828,1.1914 0.33854,0.27344 0.74218,0.41016 1.21094,0.41016 0.46874,0 0.8789,-0.14323 1.23046,-0.42969 0.36459,-0.29948 0.54688,-0.70312 0.54688,-1.21094 l 0,-11.38671 c 0,-2.30469 -0.67708,-4.01042 -2.03125,-5.11719 -1.34115,-1.10677 -3.20313,-1.66016 -5.58594,-1.66016 z m 20.83985,0 c -1.83594,0 -3.43099,0.46224 -4.78516,1.38672 -1.35417,0.92448 -2.36979,2.14844 -3.04688,3.67188 -0.66406,1.51042 -0.99609,3.21614 -0.99609,5.11718 0,1.34115 0.19531,2.59115 0.58594,3.75 0.40365,1.15886 0.97005,2.17448 1.69922,3.04688 0.74218,0.87239 1.67968,1.5625 2.8125,2.07031 1.14583,0.49479 2.42187,0.74219 3.82812,0.74219 1.4974,0 2.77995,-0.34505 3.84766,-1.03516 1.08073,-0.70312 1.88802,-1.64714 2.42187,-2.83203 l 0,3.86719 c 0,1.875 -0.51432,3.30729 -1.54296,4.29687 -1.02865,1.00261 -2.55209,1.50391 -4.57032,1.50391 -0.3125,0 -0.625,-0.0149 -0.9375,-0.041 -0.29948,-0.0261 -0.57291,-0.0586 -0.82031,-0.0977 -0.23437,-0.0261 -0.5013,-0.0716 -0.80078,-0.13672 -0.28646,-0.0651 -0.52084,-0.11722 -0.70313,-0.15625 -0.16927,-0.0391 -0.39713,-0.10417 -0.68359,-0.19531 -0.27343,-0.0912 -0.46224,-0.15626 -0.56641,-0.19532 -0.10416,-0.0391 -0.29296,-0.11067 -0.5664,-0.21484 -0.26042,-0.10417 -0.41667,-0.16276 -0.46875,-0.17578 -0.14323,-0.0521 -0.29297,-0.0781 -0.44922,-0.0781 -0.32552,0 -0.60547,0.11719 -0.83985,0.35157 -0.22135,0.24739 -0.33203,0.53385 -0.33203,0.85937 0,0.48178 0.2474,0.85937 0.74219,1.13281 1.75781,0.9375 3.97786,1.40625 6.66016,1.40625 l 0,0.002 c 2.8776,0 5.14323,-0.70312 6.79687,-2.10938 1.66667,-1.40624 2.5,-3.49609 2.5,-6.26953 l 0,-17.63672 c 0,-0.52083 -0.16275,-0.92448 -0.48828,-1.21093 -0.32552,-0.29948 -0.71615,-0.44922 -1.17187,-0.44922 -0.41667,0 -0.78777,0.1302 -1.11328,0.39062 -0.3125,0.24739 -0.48828,0.59244 -0.52735,1.03516 l 0,1.97265 c -1.28906,-2.51302 -3.45052,-3.76953 -6.48437,-3.76953 z m 23.71093,0 c -1.92708,0 -3.61328,0.46875 -5.05859,1.40625 -1.44531,0.9375 -2.52605,2.15495 -3.24219,3.65235 -0.71614,1.4974 -1.07422,3.15104 -1.07422,4.96093 0,2.0573 0.42318,3.86068 1.26953,5.41016 0.85938,1.53646 2.01172,2.70183 3.45704,3.49609 1.44531,0.79428 3.07943,1.19792 4.90234,1.21094 2.91667,0 5.40364,-0.92448 7.46094,-2.77344 0.36458,-0.32552 0.54687,-0.69661 0.54687,-1.11328 0,-0.32552 -0.11067,-0.60547 -0.33203,-0.83984 -0.20833,-0.2474 -0.46875,-0.37109 -0.78125,-0.3711 -0.26041,0 -0.50781,0.0911 -0.74219,0.27344 -0.9375,0.71615 -1.86849,1.28255 -2.79296,1.69922 -0.92449,0.41667 -1.96615,0.625 -3.125,0.625 -1.83594,-0.0261 -3.33985,-0.612 -4.51172,-1.75781 -1.17188,-1.15885 -1.77083,-2.85807 -1.79688,-5.09766 l 13.39844,0 c 0.41667,0 0.72917,-0.1237 0.9375,-0.37109 0.20833,-0.2474 0.3125,-0.5599 0.3125,-0.9375 -0.0391,-1.31511 -0.22787,-2.51954 -0.56641,-3.61328 -0.33854,-1.10678 -0.84636,-2.10286 -1.52343,-2.98828 -0.67709,-0.89844 -1.58855,-1.60157 -2.73438,-2.10938 -1.14583,-0.50781 -2.48047,-0.76172 -4.00391,-0.76172 z m 62.83203,0 c -1.4974,0 -2.8125,0.31901 -3.94531,0.95703 -1.11979,0.63802 -1.92708,1.54948 -2.42187,2.73438 l 0,-1.69922 c 0,-0.50781 -0.17579,-0.89843 -0.52735,-1.17187 -0.33854,-0.28646 -0.7487,-0.42969 -1.23047,-0.42969 -0.48177,0 -0.89844,0.14974 -1.25,0.44922 -0.35156,0.28646 -0.52734,0.6901 -0.52734,1.21093 l 0,16.05469 c 0,0.53385 0.16927,0.95052 0.50781,1.25 0.33854,0.28646 0.7487,0.42969 1.23047,0.42969 0.48177,0 0.89844,-0.14974 1.25,-0.44922 0.36458,-0.29948 0.54688,-0.70964 0.54688,-1.23047 l 0,-9.74609 c 0.0911,-1.83594 0.65104,-3.28776 1.67968,-4.35547 1.02865,-1.06771 2.29167,-1.60156 3.78907,-1.60156 1.40625,0 2.49349,0.43619 3.26172,1.30859 0.78124,0.87239 1.17187,2.14193 1.17187,3.80859 l 0,10.58594 c 0,0.53385 0.16927,0.95052 0.50781,1.25 0.35156,0.28646 0.76823,0.42969 1.25,0.42969 0.48177,0 0.89193,-0.14323 1.23047,-0.42969 0.35156,-0.29948 0.52735,-0.71615 0.52735,-1.25 l 0,-10.54687 c 0,-2.53906 -0.63803,-4.4336 -1.91407,-5.6836 -1.27604,-1.25 -2.98828,-1.875 -5.13672,-1.875 z m 19.88282,0 c -2.78646,0 -5.18881,0.56641 -7.20703,1.69922 -0.36459,0.20833 -0.54688,0.50781 -0.54688,0.89844 0,0.33854 0.12369,0.65104 0.37109,0.9375 0.2474,0.27343 0.54037,0.41016 0.87891,0.41016 0.18229,0 0.33854,-0.0345 0.46875,-0.0996 0.66407,-0.29948 1.22396,-0.53386 1.67969,-0.70313 0.45573,-0.16927 1.08073,-0.33854 1.875,-0.50781 0.79427,-0.16928 1.58854,-0.25391 2.38281,-0.25391 1.32813,0 2.36328,0.33203 3.10547,0.9961 0.74219,0.66406 1.11328,1.69271 1.11328,3.08593 l 0,2.12891 c -1.44531,0 -2.68229,0.0195 -3.71094,0.0586 -1.01562,0.0391 -2.00521,0.11068 -2.96875,0.21485 -0.96354,0.0911 -1.75781,0.23437 -2.38281,0.42968 -0.625,0.18229 -1.19792,0.42318 -1.71875,0.72266 -0.52083,0.28646 -0.92448,0.64453 -1.21094,1.07422 -0.28646,0.41667 -0.50781,0.90495 -0.66406,1.46484 -0.15625,0.5599 -0.23437,1.21094 -0.23437,1.95313 0,1.79687 0.63802,3.18359 1.91406,4.16015 1.27604,0.97656 2.93619,1.46485 4.98047,1.46485 l 0,0.002 c 2.79948,0 4.80468,-1.26953 6.01562,-3.80859 l 0,1.875 c 0,0.5078 0.16276,0.90494 0.48828,1.1914 0.33854,0.27344 0.74219,0.41016 1.21094,0.41016 0.46875,0 0.87891,-0.14323 1.23047,-0.42969 0.36459,-0.29948 0.54687,-0.70312 0.54687,-1.21094 l 0,-11.38671 c 0,-2.30469 -0.67708,-4.01042 -2.03124,-5.11719 -1.34115,-1.10677 -3.20313,-1.66016 -5.58594,-1.66016 z m 38.39844,0.35156 c -0.67709,0 -1.19141,0.35808 -1.54297,1.07422 l -5.97657,12.65625 -5.9375,-12.59765 c -0.32552,-0.69011 -0.83333,-1.03516 -1.52343,-1.03516 -0.45573,0 -0.86589,0.15625 -1.23047,0.46875 -0.35156,0.3125 -0.52735,0.70313 -0.52735,1.17188 0,0.28646 0.0586,0.54687 0.17579,0.78125 l 7.26562,14.98046 -3.49609,7.40235 c -0.11719,0.26041 -0.17579,0.50781 -0.17579,0.74219 0,0.44271 0.16928,0.80729 0.50782,1.09375 0.33854,0.29948 0.72916,0.44922 1.17187,0.44921 0.70312,0 1.23047,-0.36458 1.58203,-1.09374 l 11.28907,-23.8086 c 0.0911,-0.22135 0.13671,-0.44271 0.13671,-0.66406 0,-0.44271 -0.17577,-0.82031 -0.52734,-1.13281 -0.33854,-0.32552 -0.73568,-0.48828 -1.1914,-0.48829 z m 26.79687,0.0195 c -0.48177,0 -0.90494,0.15625 -1.26953,0.46875 -0.35156,0.3125 -0.52734,0.74218 -0.52734,1.28906 l 0,15.87891 c 0,0.57292 0.16927,1.01562 0.50781,1.32812 0.33854,0.29948 0.74869,0.44922 1.23047,0.44922 0.48177,0 0.89844,-0.15625 1.25,-0.46875 0.36458,-0.32552 0.54687,-0.76171 0.54687,-1.30859 l 0,-15.87891 c 0,-0.54688 -0.17578,-0.97656 -0.52734,-1.28906 -0.33854,-0.3125 -0.74219,-0.46875 -1.21094,-0.46875 z m -170.97656,2.03125 c 0.83333,0 1.58203,0.14322 2.24609,0.42968 0.66407,0.27344 1.20443,0.65105 1.6211,1.13282 0.42968,0.46875 0.78124,1.03515 1.05468,1.69921 0.28646,0.65105 0.48828,1.33465 0.60547,2.05079 0.11719,0.70312 0.17578,1.45833 0.17578,2.26562 0,2.35677 -0.53385,4.19271 -1.60156,5.50781 -1.06771,1.30209 -2.4349,1.95313 -4.10156,1.95313 -1.71875,0 -3.13802,-0.625 -4.25781,-1.875 -1.1198,-1.25 -1.67969,-3.08593 -1.67969,-5.50781 0,-1.44531 0.20182,-2.72787 0.60547,-3.84766 0.40364,-1.11979 1.06119,-2.03125 1.97265,-2.73438 0.91146,-0.71614 2.03125,-1.07421 3.35938,-1.07421 z m 23.26172,0 c 1.75781,0 3.09244,0.57942 4.0039,1.73828 0.91146,1.15885 1.42578,2.64974 1.54297,4.47265 l -11.5039,0 c 0.0651,-0.80729 0.2344,-1.56901 0.50781,-2.28515 0.28646,-0.72917 0.66406,-1.38672 1.13281,-1.97266 0.48177,-0.59896 1.09375,-1.07422 1.83594,-1.42578 0.74218,-0.35157 1.56901,-0.52734 2.48047,-0.52734 z m -40.625,8.2207 0,0.58594 c 0,1.91406 -0.56641,3.48958 -1.69922,4.72656 -1.1198,1.23698 -2.42839,1.85547 -3.92578,1.85547 l 0,0.002 c -1.21094,0 -2.16798,-0.27344 -2.8711,-0.82031 -0.70312,-0.5599 -1.05469,-1.4323 -1.05469,-2.61719 0,-0.65104 0.0911,-1.18489 0.27344,-1.60156 0.19531,-0.41667 0.48828,-0.76823 0.87891,-1.05469 0.39063,-0.29948 0.97656,-0.52083 1.75781,-0.66406 0.78125,-0.15625 1.67969,-0.26042 2.69531,-0.3125 1.01562,-0.0651 2.33073,-0.0996 3.94532,-0.0996 z m 127.26562,0 0,0.58594 c 0,1.91406 -0.56641,3.48958 -1.69922,4.72656 -1.11979,1.23698 -2.42838,1.85547 -3.92578,1.85547 l 0,0.002 c -1.21093,0 -2.16797,-0.27344 -2.87109,-0.82031 -0.70313,-0.5599 -1.05469,-1.4323 -1.05469,-2.61719 0,-0.65104 0.0911,-1.18489 0.27344,-1.60156 0.19531,-0.41667 0.48828,-0.76823 0.8789,-1.05469 0.39062,-0.29948 0.97656,-0.52083 1.75782,-0.66406 0.78124,-0.15625 1.67968,-0.26042 2.69531,-0.3125 1.01563,-0.0651 2.33073,-0.0996 3.94531,-0.0996 z" /></g><text
     xml:space="preserve"
     style="font-style:normal;font-weight:normal;font-size:40px;line-height:125%;font-family:sans-serif;letter-spacing:0px;word-spacing:0px;fill:#000000;fill-opacity:1;stroke:none;stroke-width:1px;stroke-linecap:butt;stroke-linejoin:miter;stroke-opacity:1"
     x="520.83612"
     y="107.47604"
     id="text4216"
     sodipodi:linespacing="125%"><tspan
       sodipodi:role="line"
       id="tspan4218"
       x="520.83612"
       y="107.47604" /></text>
</svg>